<svg id="组_220" data-name="组 220" xmlns="http://www.w3.org/2000/svg" width="978.873" height="681.36" viewBox="0 0 978.873 681.36">
  <path id="路径_406" data-name="路径 406" d="M905.814,245.716l-75.512.736c-3.549-17.474-15.475-63.321-4.735-75.827a18.381,18.381,0,0,1,19.361-16.447h0c11.7-18.321,31.2-15.57,44.375-4.128,13.26,4.576,18.26,12.7,16.511,23.735,9.82,8.6,11.632,19.054,7.224,30.959Z" transform="translate(-87.929 -140.947)" fill="#2f2e41"/>
  <path id="路径_407" data-name="路径 407" d="M897.431,284.414l-54.48-7.543-10.9-15.925c15.009-9.956,20.321-23.862,13.41-42.746l37.717-.838c-1.767,16.816,3.794,29.837,19.278,37.717Z" transform="translate(-86.816 -133.127)" fill="#ffb9b9"/>
  <path id="路径_408" data-name="路径 408" d="M830.451,724.051l-2.083,28.479a9.066,9.066,0,0,0,9.59,9.711l14.628-.885a4.624,4.624,0,0,0,4.206-5.737l-8.12-32.478Z" transform="translate(-87.196 -81.369)" fill="#e6e6e6"/>
  <path id="路径_409" data-name="路径 409" d="M873.983,723.14l-8.12,32.478a4.624,4.624,0,0,0,4.206,5.737l14.628.886a9.066,9.066,0,0,0,9.59-9.711L892.2,724.051Z" transform="translate(-83.371 -81.369)" fill="#e6e6e6"/>
  <path id="路径_410" data-name="路径 410" d="M743.784,613.839l-19.741-1.981L704.391,401.787l-7.428,209.4-19.394-.695-32.687-290H769.766Z" transform="translate(65.994 32.797)" fill="#6c63ff"/>
  <circle id="椭圆_69" data-name="椭圆 69" cx="37.717" cy="37.717" r="37.717" transform="translate(741.886 23.049)" fill="#ffb9b9"/>
  <path id="路径_411" data-name="路径 411" d="M945.061,489.769l-152.544,1.676c22.638-86.182,36.18-166.236,12.572-221.273l37.717-18.439c18.186,18.969,38.44,17.013,60.347-1.676l36.041,9.22C933.022,331.447,935.788,408.743,945.061,489.769Z" transform="translate(-90.862 -129.781)" fill="#6c63ff"/>
  <path id="路径_412" data-name="路径 412" d="M754.5,393.144l94.711,37.717,21.175,6.228a7.325,7.325,0,0,0,9.173-5.251h0a7.325,7.325,0,0,0-4.17-8.488L853.4,416.612l-66.214-38.555,13.83-36.46L772.1,326.091Z" transform="translate(-94.753 -122)" fill="#ffb9b9"/>
  <path id="路径_413" data-name="路径 413" d="M755.26,330.328c18.02,7.03,32.352,19.028,43.584,35.2l35.2-51.127L808.9,268.3Z" transform="translate(-94.675 -127.914)" fill="#6c63ff"/>
  <path id="路径_414" data-name="路径 414" d="M909.028,193.937c-15.308-3.944-30.359-4.486-44.99.517-9.32,4.514-20.512,4.1-32.959.379V157.2l67.2,1.792Z" transform="translate(-86.916 -139.283)" fill="#2f2e41"/>
  <path id="路径_415" data-name="路径 415" d="M841.171,347.053A11.183,11.183,0,0,0,830,358.224l4.409,92.3A11.183,11.183,0,0,0,845.58,461.7h50.412a11.183,11.183,0,0,0,11.171-11.171l4.409-92.3A11.183,11.183,0,0,0,900.4,347.053Z" transform="translate(-87.027 -119.855)" fill="#3f3d56"/>
  <path id="路径_416" data-name="路径 416" d="M981.075,386.721l-82.554,32.872-6.228,2.48c-.2.077-.4.143-.606.209l-20.867,6.14c-2.668.783-6.36-2.811-8.521-5.291a6.708,6.708,0,0,1-.176-8.742,7.437,7.437,0,0,1,.948-.915,6.161,6.161,0,0,1,2.756-1.213l20.845-4.1a6.983,6.983,0,0,0,2.128-.794l9.723-5.666L949,372.313a6.855,6.855,0,0,0,2.965-8.356l-9.634-25.409a6.847,6.847,0,0,1,3.164-8.466l15.962-8.554a6.841,6.841,0,0,1,9.855,4.3l13.856,52.78a6.856,6.856,0,0,1-4.09,8.113Z" transform="translate(-83.896 -122.551)" fill="#ffb9b9"/>
  <path id="路径_417" data-name="路径 417" d="M981.554,322.12c-18.02,7.03-32.352,19.028-43.584,35.2l-35.2-51.127,25.145-47.775Z" transform="translate(-79.58 -128.925)" fill="#6c63ff"/>
  <path id="路径_418" data-name="路径 418" d="M891.424,229.03c-16.5,6.863-33.8,6.585-51.81,0,5.24-8.944-2.593-15.95-6.614-24.979l67.242-2C895.1,209.9,887.513,219.164,891.424,229.03Z" transform="translate(-86.72 -134.694)" fill="#fff"/>
  <path id="路径_419" data-name="路径 419" d="M737.426,63.348l-.78-.779,1.1-1.1,6.585-7.685.838.717-6.614,7.716Z" transform="translate(75.384 5.504)" fill="#fff"/>
  <rect id="矩形_258" data-name="矩形 258" width="1.103" height="8.61" transform="translate(740.963 65.027) rotate(-50.195)" fill="#fff"/>
  <rect id="矩形_259" data-name="矩形 259" width="21.559" height="1.103" transform="matrix(0.537, -0.844, 0.844, 0.537, 803.133, 93.519)" fill="#fff"/>
  <rect id="矩形_260" data-name="矩形 260" width="1.103" height="21.559" transform="translate(741.957 75.918) rotate(-32.471)" fill="#fff"/>
  <path id="路径_420" data-name="路径 420" d="M900.931,392.768v19.971l-6.952,2.769c-.221.086-.443.16-.677.234l-23.293,6.854c-2.978.874-7.1-3.138-9.511-5.906a7.487,7.487,0,0,1-.2-9.758,8.308,8.308,0,0,1,1.058-1.021,6.877,6.877,0,0,1,3.076-1.354l23.268-4.577a7.8,7.8,0,0,0,2.375-.886Z" transform="translate(-84.101 -115.177)" fill="#fff"/>
  <path id="路径_421" data-name="路径 421" d="M908.729,337.394h-3.984c0-56.341-11.6-95.6-22.905-95.6l-1-3.984c10.138,0,16.6,16.341,20.238,30.05C906.014,286.441,908.729,311.137,908.729,337.394Z" transform="translate(-81.823 -131.035)" fill="#3f3d56"/>
  <path id="路径_422" data-name="路径 422" d="M823.395,323.267h-3.984c0-51.6,11.681-83.654,28.88-83.654l-1,3.983C835.4,243.6,823.395,268.232,823.395,323.267Z" transform="translate(-88.11 -130.85)" fill="#3f3d56"/>
  <circle id="椭圆_70" data-name="椭圆 70" cx="9.959" cy="9.959" r="9.959" transform="translate(814.955 197.396)" fill="#3f3d56"/>
  <path id="路径_423" data-name="路径 423" d="M808.94,339.587h-3.984c0-14.277,8.041-25.893,17.926-25.893v3.984C815.194,317.678,808.94,327.506,808.94,339.587Z" transform="translate(-89.589 -123.269)" fill="#3f3d56"/>
  <path id="路径_424" data-name="路径 424" d="M839.143,339.587H835.16c0-12.081-6.254-21.909-13.942-21.909v-3.984C831.1,313.694,839.143,325.309,839.143,339.587Z" transform="translate(-87.925 -123.269)" fill="#3f3d56"/>
  <circle id="椭圆_71" data-name="椭圆 71" cx="3.984" cy="3.984" r="3.984" transform="translate(745.244 213.331)" fill="#3f3d56"/>
  <circle id="椭圆_72" data-name="椭圆 72" cx="3.984" cy="3.984" r="3.984" transform="translate(713.375 213.331)" fill="#3f3d56"/>
  <path id="路径_425" data-name="路径 425" d="M379.409,223.97l-69.961,11.848a7.082,7.082,0,0,1-8.014-5.085c-5.055-18.243-15.622-42.042-5.362-53.989a19.627,19.627,0,0,1,20.675-17.563h0c12.5-19.563,33.315-16.626,47.385-4.408,14.16,4.886,19.5,13.566,17.632,25.345,6.117,5.355,9.324,11.386,10,18.005a26,26,0,0,1-7.114,20.229Z" transform="translate(-142.108 -140.527)" fill="#2f2e41"/>
  <path id="路径_426" data-name="路径 426" d="M366.438,270.163l-54.235-3.19c5.315-12.2,7.438-23.947,5.317-35.093H357.93C357.839,240.439,362.1,255.243,366.438,270.163Z" transform="translate(-140.015 -131.642)" fill="#9f616a"/>
  <path id="路径_427" data-name="路径 427" d="M302.389,721.326l-2.225,30.411a9.681,9.681,0,0,0,10.241,10.37l15.62-.946a4.938,4.938,0,0,0,4.491-6.126l-8.671-34.681Z" transform="translate(-141.25 -81.654)" fill="#e6e6e6"/>
  <path id="路径_428" data-name="路径 428" d="M348.874,720.353,340.2,755.034a4.938,4.938,0,0,0,4.491,6.126l15.62.946a9.681,9.681,0,0,0,10.241-10.37l-2.225-30.411Z" transform="translate(-137.165 -81.654)" fill="#e6e6e6"/>
  <path id="路径_429" data-name="路径 429" d="M220.424,613.2l-21.079-2.115L178.359,386.761l-7.931,223.6-20.71-.742L114.813,299.944H248.17Z" transform="translate(11.749 30.695)" fill="#6c63ff"/>
  <circle id="椭圆_73" data-name="椭圆 73" cx="40.276" cy="40.276" r="40.276" transform="translate(158.501 32.596)" fill="#9f616a"/>
  <path id="路径_430" data-name="路径 430" d="M385.229,192.061c-16.347-2.847-32.418-3.238-48.042.373-9.952,3.258-21.9,2.958-35.195.273v-27.16l71.756,1.293Z" transform="translate(-141.06 -138.429)" fill="#2f2e41"/>
  <path id="路径_431" data-name="路径 431" d="M366.431,239.044c-17.619,7.329-36.094,7.031-55.325,0,5.6-9.551-2.769-17.032-7.063-26.673l71.8-2.134C370.356,218.614,362.254,228.509,366.431,239.044Z" transform="translate(-140.85 -133.856)" fill="#fff"/>
  <rect id="矩形_261" data-name="矩形 261" width="1.103" height="9.193" transform="translate(157.544 73.861) rotate(-50.195)" fill="#fff"/>
  <rect id="矩形_262" data-name="矩形 262" width="23.022" height="1.103" transform="matrix(0.537, -0.844, 0.844, 0.537, 223.936, 104.335)" fill="#fff"/>
  <rect id="矩形_263" data-name="矩形 263" width="1.103" height="23.022" transform="translate(158.607 85.506) rotate(-32.471)" fill="#fff"/>
  <path id="路径_432" data-name="路径 432" d="M269.724,384.849l-30.84-19.142,26.3-77.03a36.339,36.339,0,0,1,15.884-18.867l8.86-5.129.77,77.709Z" transform="translate(-147.518 -128.285)" fill="#6c63ff"/>
  <path id="路径_433" data-name="路径 433" d="M400.73,423.839l-4.563-39.08c-.244-20.628,3.266-40.571,11.634-58.947l4.254-57.426-46.791-19.142c-.144.954-.266,1.906-.4,2.86l-21.93,10.965-21.387-4.861.118-6.837-42.538,19.142c14.067,65.4,6.395,133.314-17.8,213.532l56.039,15.323.466-26.909,49.943-3.567c.514,8.73.928,17.305,1.168,25.69,28.181,10.375,29.149,10.2,54.826-4.652C413.546,468.432,405.449,446.061,400.73,423.839Z" transform="translate(-145.221 -129.864)" fill="#6c63ff"/>
  <path id="路径_434" data-name="路径 434" d="M303.98,234.133l-28.712-9.57L229.34,171.1l14.024-45.433,63.806,89.329Z" transform="translate(23.469 12.86)" fill="#6c63ff"/>
  <path id="路径_435" data-name="路径 435" d="M371.437,403.958a7.987,7.987,0,0,0,9.541,6.018l24.373-5.52L401.829,388.9l-24.374,5.519a7.977,7.977,0,0,0-6.018,9.541Z" transform="translate(-133.974 -115.573)" fill="#e6e6e6"/>
  <path id="路径_436" data-name="路径 436" d="M391.309,390.183l13.825,25.523c23.253-6.485,43.405-26.931,62.743-51.045l-5.317-17.015-32.967,8.507Z" transform="translate(-131.92 -119.795)" fill="#6c63ff"/>
  <path id="路径_437" data-name="路径 437" d="M71.79,172.661,98.33,177.4l60.663,86.254-32.227-7.583Z" transform="translate(7.347 17.669)" fill="#e6e6e6"/>
  <path id="路径_438" data-name="路径 438" d="M223.726,312.65a2.257,2.257,0,0,0-1.852,3.5l56.7,86.033a2.25,2.25,0,0,0,1.366.954l26.382,6.207a2.253,2.253,0,0,0,2.359-3.49l-62.257-88.521a2.241,2.241,0,0,0-1.447-.922l-20.829-3.72a2.447,2.447,0,0,0-.426-.039Z" transform="translate(-149.297 -123.376)" fill="#3f3d56"/>
  <path id="路径_439" data-name="路径 439" d="M255.608,368.685l1.576,15.874,24.868-2.469a7.976,7.976,0,1,0-1.575-15.874Z" transform="translate(-145.807 -117.898)" fill="#e6e6e6"/>
  <path id="路径_440" data-name="路径 440" d="M235.991,368.019A20.514,20.514,0,0,0,256.48,388.4h4.089l2.977-24.808L238.9,354.714Z" transform="translate(-147.814 -119.071)" fill="#6c63ff"/>
  <path id="路径_441" data-name="路径 441" d="M211.471,72.724l-.779-.779,1.177-1.177,7.034-8.209.837.717-7.063,8.24Z" transform="translate(21.561 6.402)" fill="#fff"/>
  <rect id="矩形_264" data-name="矩形 264" width="978.873" height="2.205" transform="translate(0 679.155)" fill="#3f3d56"/>
  <path id="路径_442" data-name="路径 442" d="M495,784.622H726.49V503.84c0-14.868-14.645-26.964-32.645-26.964h-166.2c-18,0-32.645,12.1-32.645,26.964Z" transform="translate(-121.309 -106.57)" fill="#e6e6e6"/>
  <path id="路径_443" data-name="路径 443" d="M511,769.736H707.216v-238c0-12.6-12.413-22.855-27.67-22.855H538.671c-15.259,0-27.671,10.253-27.671,22.855Z" transform="translate(-119.671 -103.294)" fill="#fff"/>
  <path id="路径_444" data-name="路径 444" d="M494.377,457.053c-5.722,0-10.377,3.845-10.377,8.571v24.741c0,4.726,4.655,8.571,10.377,8.571H729.365c5.722,0,10.376-3.845,10.376-8.571V465.624c0-4.726-4.655-8.571-10.376-8.571Z" transform="translate(-122.434 -108.598)" fill="#3f3d56"/>
  <path id="路径_445" data-name="路径 445" d="M538.122,717.836a10.168,10.168,0,0,0-10.138,10.138h0a10.168,10.168,0,0,0,10.138,10.138H557.1V717.836Z" transform="translate(-117.933 -81.911)" fill="#3f3d56"/>
  <path id="路径_446" data-name="路径 446" d="M571.907,717.836H553.452v20.275h18.456a10.167,10.167,0,0,0,10.138-10.138h0a10.168,10.168,0,0,0-10.139-10.138Z" transform="translate(-115.327 -81.911)" fill="#6c63ff"/>
  <path id="路径_447" data-name="路径 447" d="M578.523,720.088a10.079,10.079,0,0,1,2.483,6.615h0a10.168,10.168,0,0,1-10.138,10.138H553.452v1.04h18.456a10.167,10.167,0,0,0,10.138-10.138h0a10.116,10.116,0,0,0-3.522-7.655Z" transform="translate(-115.327 -81.681)" opacity="0.2"/>
  <path id="路径_448" data-name="路径 448" d="M616.486,579.6a10.168,10.168,0,0,0-14.331-.423h0a10.168,10.168,0,0,0-.423,14.331l13.016,13.808L629.5,593.412Z" transform="translate(-110.668 -96.382)" fill="#3f3d56"/>
  <path id="路径_449" data-name="路径 449" d="M640.052,604.579l-12.66-13.43-14.754,13.908,12.66,13.43a10.167,10.167,0,0,0,14.331.423h0a10.168,10.168,0,0,0,.424-14.331Z" transform="translate(-109.27 -94.876)" fill="#6c63ff"/>
  <path id="路径_450" data-name="路径 450" d="M642.782,609.871a10.08,10.08,0,0,1-3.111,6.344h0a10.167,10.167,0,0,1-14.331-.423l-11.947-12.673-.757.713,12.66,13.43a10.168,10.168,0,0,0,14.331.423h0A10.116,10.116,0,0,0,642.782,609.871Z" transform="translate(-109.27 -93.651)" opacity="0.2"/>
  <path id="路径_451" data-name="路径 451" d="M567.486,608.6a10.168,10.168,0,0,0-14.331-.423h0a10.168,10.168,0,0,0-.423,14.331l13.016,13.808L580.5,622.412Z" transform="translate(-115.682 -93.414)" fill="#3f3d56"/>
  <path id="路径_452" data-name="路径 452" d="M591.052,633.579l-12.66-13.43-14.754,13.908,12.66,13.43a10.168,10.168,0,0,0,14.331.423h0a10.167,10.167,0,0,0,.424-14.331Z" transform="translate(-114.285 -91.908)" fill="#6c63ff"/>
  <path id="路径_453" data-name="路径 453" d="M593.782,638.871a10.079,10.079,0,0,1-3.111,6.344h0a10.168,10.168,0,0,1-14.331-.423l-11.947-12.673-.757.713,12.66,13.43a10.168,10.168,0,0,0,14.331.423h0a10.116,10.116,0,0,0,3.155-7.814Z" transform="translate(-114.285 -90.683)" opacity="0.2"/>
  <path id="路径_454" data-name="路径 454" d="M616.486,635.6a10.168,10.168,0,0,0-14.331-.423h0a10.167,10.167,0,0,0-.423,14.331l13.016,13.808L629.5,649.413Z" transform="translate(-110.667 -90.651)" fill="#3f3d56"/>
  <path id="路径_455" data-name="路径 455" d="M640.052,660.579l-12.66-13.43-14.754,13.908,12.66,13.43a10.167,10.167,0,0,0,14.331.423h0A10.168,10.168,0,0,0,640.052,660.579Z" transform="translate(-109.27 -89.145)" fill="#6c63ff"/>
  <path id="路径_456" data-name="路径 456" d="M642.782,665.871a10.08,10.08,0,0,1-3.111,6.344h0a10.167,10.167,0,0,1-14.331-.423l-11.947-12.673-.757.713,12.66,13.43a10.168,10.168,0,0,0,14.331.423h0a10.116,10.116,0,0,0,3.154-7.814Z" transform="translate(-109.27 -87.92)" opacity="0.2"/>
  <path id="路径_457" data-name="路径 457" d="M647.329,694.394a10.168,10.168,0,0,0,.249-14.335h0a10.168,10.168,0,0,0-14.335-.249l-13.649,13.183,14.086,14.584Z" transform="translate(-108.558 -86.093)" fill="#3f3d56"/>
  <path id="路径_458" data-name="路径 458" d="M622.6,718.256l13.275-12.822L621.79,690.851l-13.274,12.821a10.168,10.168,0,0,0-.249,14.335h0a10.168,10.168,0,0,0,14.335.249Z" transform="translate(-110.007 -84.673)" fill="#6c63ff"/>
  <path id="路径_459" data-name="路径 459" d="M616.119,721.066a10.08,10.08,0,0,1-6.382-3.033h0a10.168,10.168,0,0,1,.249-14.335l12.527-12.1-.722-.748-13.275,12.822a10.168,10.168,0,0,0-.249,14.335h0A10.116,10.116,0,0,0,616.119,721.066Z" transform="translate(-110.007 -84.673)" opacity="0.2"/>
  <path id="路径_460" data-name="路径 460" d="M581.329,665.394a10.168,10.168,0,0,0,.249-14.335h0a10.168,10.168,0,0,0-14.335-.249l-13.649,13.183,14.086,14.584Z" transform="translate(-115.312 -89.06)" fill="#3f3d56"/>
  <path id="路径_461" data-name="路径 461" d="M556.6,689.256l13.275-12.822L555.79,661.851l-13.274,12.821a10.167,10.167,0,0,0-.249,14.335h0a10.168,10.168,0,0,0,14.335.249Z" transform="translate(-116.762 -87.64)" fill="#6c63ff"/>
  <path id="路径_462" data-name="路径 462" d="M550.119,692.066a10.079,10.079,0,0,1-6.382-3.033h0a10.168,10.168,0,0,1,.249-14.335l12.527-12.1-.722-.748-13.275,12.822a10.167,10.167,0,0,0-.249,14.335h0a10.116,10.116,0,0,0,7.852,3.059Z" transform="translate(-116.762 -87.641)" opacity="0.2"/>
  <path id="路径_463" data-name="路径 463" d="M675.329,630.394a10.167,10.167,0,0,0,.249-14.335h0a10.168,10.168,0,0,0-14.335-.249l-13.649,13.183,14.086,14.584Z" transform="translate(-105.693 -92.642)" fill="#3f3d56"/>
  <path id="路径_464" data-name="路径 464" d="M650.6,654.256l13.275-12.822L649.79,626.851l-13.274,12.821a10.168,10.168,0,0,0-.249,14.335h0a10.168,10.168,0,0,0,14.335.249Z" transform="translate(-107.142 -91.222)" fill="#6c63ff"/>
  <path id="路径_465" data-name="路径 465" d="M644.119,657.066a10.08,10.08,0,0,1-6.382-3.033h0a10.168,10.168,0,0,1,.249-14.335l12.527-12.1-.722-.748-13.275,12.822a10.168,10.168,0,0,0-.249,14.335h0a10.116,10.116,0,0,0,7.852,3.059Z" transform="translate(-107.142 -91.222)" opacity="0.2"/>
  <path id="路径_466" data-name="路径 466" d="M653.486,701.6a10.168,10.168,0,0,0-14.331-.423h0a10.168,10.168,0,0,0-.423,14.331l13.016,13.808L666.5,715.412Z" transform="translate(-106.881 -83.897)" fill="#3f3d56"/>
  <path id="路径_467" data-name="路径 467" d="M677.052,726.579l-12.66-13.43-14.754,13.908,12.66,13.43a10.168,10.168,0,0,0,14.331.423h0a10.167,10.167,0,0,0,.424-14.331Z" transform="translate(-105.484 -82.391)" fill="#6c63ff"/>
  <path id="路径_468" data-name="路径 468" d="M679.782,731.871a10.079,10.079,0,0,1-3.111,6.344h0a10.168,10.168,0,0,1-14.331-.423l-11.947-12.673-.757.713,12.66,13.43a10.168,10.168,0,0,0,14.331.423h0a10.116,10.116,0,0,0,3.154-7.814Z" transform="translate(-105.484 -81.166)" opacity="0.2"/>
  <path id="路径_469" data-name="路径 469" d="M588.486,700.6a10.167,10.167,0,0,0-14.331-.423h0a10.168,10.168,0,0,0-.423,14.331l13.016,13.808L601.5,714.412Z" transform="translate(-113.533 -83.999)" fill="#3f3d56"/>
  <path id="路径_470" data-name="路径 470" d="M612.052,725.579l-12.66-13.43-14.755,13.908,12.66,13.43a10.167,10.167,0,0,0,14.331.423h0A10.168,10.168,0,0,0,612.052,725.579Z" transform="translate(-112.135 -82.493)" fill="#6c63ff"/>
  <path id="路径_471" data-name="路径 471" d="M614.782,730.871a10.08,10.08,0,0,1-3.111,6.344h0a10.167,10.167,0,0,1-14.331-.423l-11.947-12.673-.757.713,12.66,13.43a10.168,10.168,0,0,0,14.331.423h0A10.115,10.115,0,0,0,614.782,730.871Z" transform="translate(-112.136 -81.268)" opacity="0.2"/>
  <path id="路径_472" data-name="路径 472" d="M607.873,668.673a14.621,14.621,0,1,1-11.7-14.328,14.621,14.621,0,0,1,11.7,14.328Z" transform="translate(-112.75 -88.439)" fill="#6c63ff"/>
  <path id="路径_473" data-name="路径 473" d="M595.09,654.345V683a14.764,14.764,0,0,1-5.848,0V654.345a14.768,14.768,0,0,1,5.848,0Z" transform="translate(-111.664 -88.439)" opacity="0.2"/>
  <path id="路径_474" data-name="路径 474" d="M613.873,615.673a14.621,14.621,0,1,1-17.545-14.328,14.769,14.769,0,0,1,5.848,0,14.621,14.621,0,0,1,11.7,14.328Z" transform="translate(-112.136 -93.862)" fill="#6c63ff"/>
  <path id="路径_475" data-name="路径 475" d="M601.09,601.345V630a14.766,14.766,0,0,1-5.848,0V601.345a14.768,14.768,0,0,1,5.848,0Z" transform="translate(-111.05 -93.862)" opacity="0.2"/>
  <path id="路径_476" data-name="路径 476" d="M613.873,691.673a14.621,14.621,0,1,1-17.545-14.328,14.768,14.768,0,0,1,5.848,0A14.62,14.62,0,0,1,613.873,691.673Z" transform="translate(-112.136 -86.085)" fill="#6c63ff"/>
  <path id="路径_477" data-name="路径 477" d="M601.09,677.345V706a14.766,14.766,0,0,1-5.848,0V677.345a14.77,14.77,0,0,1,5.848,0Z" transform="translate(-111.05 -86.085)" opacity="0.2"/>
  <path id="路径_478" data-name="路径 478" d="M646.873,728.673a14.621,14.621,0,1,1-11.7-14.328A14.621,14.621,0,0,1,646.873,728.673Z" transform="translate(-108.759 -82.299)" fill="#6c63ff"/>
  <path id="路径_479" data-name="路径 479" d="M634.09,714.345V743a14.766,14.766,0,0,1-5.848,0V714.345a14.77,14.77,0,0,1,5.848,0Z" transform="translate(-107.673 -82.299)" opacity="0.2"/>
  <path id="路径_480" data-name="路径 480" d="M675.609,659.62a14.621,14.621,0,1,1-18.433-1.522,14.62,14.62,0,0,1,18.433,1.522Z" transform="translate(-105.361 -88.288)" fill="#6c63ff"/>
  <path id="路径_481" data-name="路径 481" d="M656.965,657.86,677.6,677.747a14.765,14.765,0,0,1-4.058,4.211l-20.632-19.887A14.767,14.767,0,0,1,656.965,657.86Z" transform="translate(-105.149 -88.049)" opacity="0.2"/>
  <path id="路径_482" data-name="路径 482" d="M679.609,688.62a14.62,14.62,0,1,1-22.492,2.689,14.768,14.768,0,0,1,4.058-4.211,14.621,14.621,0,0,1,18.433,1.522Z" transform="translate(-104.951 -85.32)" fill="#6c63ff"/>
  <path id="路径_483" data-name="路径 483" d="M660.965,686.86,681.6,706.747a14.765,14.765,0,0,1-4.058,4.211l-20.632-19.887A14.768,14.768,0,0,1,660.965,686.86Z" transform="translate(-104.74 -85.081)" opacity="0.2"/>
  <path id="路径_484" data-name="路径 484" d="M560.609,695.62a14.62,14.62,0,1,1-22.492,2.689,14.621,14.621,0,0,1,22.492-2.689Z" transform="translate(-117.129 -84.604)" fill="#6c63ff"/>
  <path id="路径_485" data-name="路径 485" d="M541.965,693.86,562.6,713.747a14.762,14.762,0,0,1-4.058,4.211l-20.632-19.887a14.767,14.767,0,0,1,4.058-4.211Z" transform="translate(-116.918 -84.365)" opacity="0.2"/>
  <rect id="矩形_265" data-name="矩形 265" width="5.512" height="40.786" transform="translate(390.778 348.454)" opacity="0.2"/>
  <rect id="矩形_266" data-name="矩形 266" width="5.512" height="40.786" transform="translate(422.745 348.454)" opacity="0.2"/>
  <rect id="矩形_267" data-name="矩形 267" width="5.512" height="40.786" transform="translate(454.713 348.454)" opacity="0.2"/>
  <rect id="矩形_268" data-name="矩形 268" width="5.512" height="40.786" transform="translate(486.681 348.454)" opacity="0.2"/>
  <rect id="矩形_269" data-name="矩形 269" width="5.512" height="40.786" transform="translate(518.648 348.454)" opacity="0.2"/>
  <rect id="矩形_270" data-name="矩形 270" width="5.512" height="40.786" transform="translate(550.616 348.454)" opacity="0.2"/>
  <rect id="矩形_271" data-name="矩形 271" width="5.512" height="40.786" transform="translate(582.584 348.454)" opacity="0.2"/>
</svg>
