<svg xmlns="http://www.w3.org/2000/svg" xmlns:xlink="http://www.w3.org/1999/xlink" width="969.781" height="866.403" viewBox="0 0 969.781 866.403">
  <defs>
    <linearGradient id="linear-gradient" y1="0.5" x2="1" y2="0.5" gradientUnits="objectBoundingBox">
      <stop offset="0" stop-color="gray" stop-opacity="0.251"/>
      <stop offset="0.535" stop-color="gray" stop-opacity="0.122"/>
      <stop offset="1" stop-color="gray" stop-opacity="0.102"/>
    </linearGradient>
  </defs>
  <g id="组_229" data-name="组 229" transform="translate(-0.004)">
    <path id="路径_642" data-name="路径 642" d="M636.342,76.854,332,264.143s0,386.283,304.344,596.983c304.344-210.7,304.344-596.983,304.344-596.983Z" transform="translate(-149.532 -64.728)" fill="#3f3d56"/>
    <path id="路径_643" data-name="路径 643" d="M603.9,76.854l-5.2,3.2V857.473c1.728,1.221,3.455,2.443,5.2,3.653,304.344-210.7,304.344-596.983,304.344-596.983Z" transform="translate(-115.275 -64.728)" fill="#6c63ff" opacity="0.04"/>
    <g id="组_224" data-name="组 224" transform="translate(389.224 341.637)" opacity="0.7">
      <path id="路径_644" data-name="路径 644" d="M368.827,352.76,426.2,405.353l71.124-102.6,28.687,23.906L426.2,453.165l-81.28-90.842Z" transform="translate(-344.921 -302.75)" fill="url(#linear-gradient)"/>
    </g>
    <path id="路径_645" data-name="路径 645" d="M380.313,356.049l46.541,42.662,65.933-96.961,23.271,19.392L426.854,437.5l-65.933-73.69Z" transform="translate(46.358 38.759)" fill="#3ad29f"/>
    <path id="路径_646" data-name="路径 646" d="M337.168,114.938a4.146,4.146,0,0,1-2.31-5.011,2,2,0,0,0,.09-.46h0a2.079,2.079,0,0,0-3.736-1.378h0a1.982,1.982,0,0,0-.23.408,4.147,4.147,0,0,1-5.012,2.311,1.991,1.991,0,0,0-.46-.09h0a2.079,2.079,0,0,0-1.378,3.736h0a1.99,1.99,0,0,0,.408.23,4.147,4.147,0,0,1,2.31,5.011,1.99,1.99,0,0,0-.09.46h0a2.079,2.079,0,0,0,3.736,1.378h0a2,2,0,0,0,.23-.408,4.146,4.146,0,0,1,5.011-2.31,1.993,1.993,0,0,0,.46.09h0a2.079,2.079,0,0,0,1.378-3.736h0a1.994,1.994,0,0,0-.408-.23Z" transform="translate(-150.648 -60.822)" fill="#4d8af0" opacity="0.5"/>
    <path id="路径_647" data-name="路径 647" d="M191.168,439.938a4.146,4.146,0,0,1-2.31-5.011,2,2,0,0,0,.09-.46h0a2.079,2.079,0,0,0-3.736-1.378h0a2,2,0,0,0-.23.408,4.147,4.147,0,0,1-5.011,2.311,1.978,1.978,0,0,0-.46-.09h0a2.079,2.079,0,0,0-1.378,3.735h0a1.986,1.986,0,0,0,.408.23,4.146,4.146,0,0,1,2.31,5.011,1.992,1.992,0,0,0-.09.46h0a2.079,2.079,0,0,0,3.736,1.378h0a1.994,1.994,0,0,0,.23-.408,4.146,4.146,0,0,1,5.011-2.311,1.99,1.99,0,0,0,.46.09h0a2.079,2.079,0,0,0,1.378-3.736h0A2.008,2.008,0,0,0,191.168,439.938Z" transform="translate(-169.401 -19.077)" fill="#4d8af0" opacity="0.5"/>
    <circle id="椭圆_88" data-name="椭圆 88" cx="6.771" cy="6.771" r="6.771" transform="translate(837.757 279.855)" fill="#f55f44" opacity="0.5"/>
    <circle id="椭圆_89" data-name="椭圆 89" cx="6.771" cy="6.771" r="6.771" transform="translate(130.221 763.958)" fill="#f55f44" opacity="0.5"/>
    <circle id="椭圆_90" data-name="椭圆 90" cx="6.771" cy="6.771" r="6.771" transform="translate(952.858 540.526)" fill="#f55f44" opacity="0.5"/>
    <path id="路径_648" data-name="路径 648" d="M876.168,143.938a4.147,4.147,0,0,1-2.31-5.011,1.985,1.985,0,0,0,.09-.46h0a2.079,2.079,0,0,0-3.735-1.378h0a1.969,1.969,0,0,0-.231.408,4.147,4.147,0,0,1-5.011,2.311,1.994,1.994,0,0,0-.46-.09h0a2.079,2.079,0,0,0-1.378,3.736h0a2,2,0,0,0,.408.23,4.147,4.147,0,0,1,2.311,5.011,1.99,1.99,0,0,0-.091.46h0a2.079,2.079,0,0,0,3.736,1.378h0a1.988,1.988,0,0,0,.231-.408,4.146,4.146,0,0,1,5.011-2.31,1.99,1.99,0,0,0,.46.09h0a2.079,2.079,0,0,0,1.378-3.736h0A1.981,1.981,0,0,0,876.168,143.938Z" transform="translate(-81.415 -57.097)" fill="#4d8af0" opacity="0.5"/>
    <path id="路径_649" data-name="路径 649" d="M976.168,771.938a4.147,4.147,0,0,1-2.31-5.012,2.006,2.006,0,0,0,.09-.46h0a2.079,2.079,0,0,0-3.736-1.378h0a2.006,2.006,0,0,0-.23.408,4.146,4.146,0,0,1-5.011,2.31,2,2,0,0,0-.46-.09h0a2.079,2.079,0,0,0-1.378,3.736h0a2.008,2.008,0,0,0,.408.23,4.146,4.146,0,0,1,2.31,5.011,2.013,2.013,0,0,0-.09.46h0a2.079,2.079,0,0,0,3.736,1.378h0a1.96,1.96,0,0,0,.23-.409,4.147,4.147,0,0,1,5.012-2.31,2.012,2.012,0,0,0,.46.09h0a2.079,2.079,0,0,0,1.378-3.736h0A2.011,2.011,0,0,0,976.168,771.938Z" transform="translate(-68.571 23.567)" fill="#4d8af0" opacity="0.5"/>
    <path id="路径_650" data-name="路径 650" d="M184.168,249.938a4.147,4.147,0,0,1-2.31-5.011,1.99,1.99,0,0,0,.09-.46h0a2.079,2.079,0,0,0-3.736-1.378h0a2,2,0,0,0-.23.408,4.146,4.146,0,0,1-5.011,2.31,2,2,0,0,0-.46-.09h0a2.079,2.079,0,0,0-1.378,3.736h0a1.987,1.987,0,0,0,.408.23,4.146,4.146,0,0,1,2.31,5.011,2,2,0,0,0-.09.46h0a2.079,2.079,0,0,0,3.736,1.378h0a1.99,1.99,0,0,0,.23-.408,4.147,4.147,0,0,1,5.011-2.31,1.992,1.992,0,0,0,.46.09h0a2.079,2.079,0,0,0,1.378-3.736h0A1.992,1.992,0,0,0,184.168,249.938Z" transform="translate(-170.3 -43.482)" fill="#4d8af0" opacity="0.5"/>
    <circle id="椭圆_91" data-name="椭圆 91" cx="6.771" cy="6.771" r="6.771" transform="translate(82.826 313.708)" fill="#47e6b1" opacity="0.5"/>
    <circle id="椭圆_92" data-name="椭圆 92" cx="6.771" cy="6.771" r="6.771" transform="translate(956.244 367.874)" fill="#47e6b1" opacity="0.5"/>
    <g id="组_225" data-name="组 225" transform="translate(650.435)" opacity="0.5">
      <rect id="矩形_299" data-name="矩形 299" width="3.385" height="19.184" transform="translate(7.899)" fill="#47e6b1"/>
      <rect id="矩形_300" data-name="矩形 300" width="3.385" height="19.184" transform="translate(19.184 7.9) rotate(90)" fill="#47e6b1"/>
    </g>
    <g id="组_226" data-name="组 226" transform="translate(662.848 751.545)" opacity="0.5">
      <rect id="矩形_301" data-name="矩形 301" width="3.385" height="19.184" transform="translate(7.899)" fill="#47e6b1"/>
      <rect id="矩形_302" data-name="矩形 302" width="3.385" height="19.184" transform="translate(19.184 7.9) rotate(90)" fill="#47e6b1"/>
    </g>
    <g id="组_227" data-name="组 227" transform="translate(21.89 792.169)" opacity="0.5">
      <rect id="矩形_303" data-name="矩形 303" width="3.385" height="19.184" transform="translate(7.899)" fill="#47e6b1"/>
      <rect id="矩形_304" data-name="矩形 304" width="3.385" height="19.184" transform="translate(19.184 7.9) rotate(90)" fill="#47e6b1"/>
    </g>
    <g id="组_228" data-name="组 228" transform="translate(792.619 446.865)" opacity="0.5">
      <rect id="矩形_305" data-name="矩形 305" width="3.385" height="19.184" transform="translate(7.899)" fill="#47e6b1"/>
      <rect id="矩形_306" data-name="矩形 306" width="3.385" height="19.184" transform="translate(19.184 7.9) rotate(90)" fill="#47e6b1"/>
    </g>
    <path id="路径_651" data-name="路径 651" d="M795.951,123.984l7.271,6.665,10.3-15.148,3.636,3.03-13.936,18.178-10.3-11.512Z" transform="translate(101.847 14.836)" fill="#47e6b1" opacity="0.5"/>
    <rect id="矩形_307" data-name="矩形 307" width="25.099" height="32.271" transform="translate(665.156 270.977) rotate(-2.221)" fill="#6c63ff"/>
    <path id="路径_652" data-name="路径 652" d="M685.6,406.38s-34.733-16.595-34.177-2.263,35.01,23.76,35.01,23.76Z" transform="translate(-108.503 -23.441)" fill="#ffb9b9"/>
    <path id="路径_653" data-name="路径 653" d="M702.194,515.1s-16.386,40.107-22.44,69.048-15.275,68.77-3.414,97.017,45.58,111.264,45.927,120.221-2.888,18.054,4.278,17.776,46.161-12.555,47.744-18-13.3-19.22-13.3-19.22L724.221,666.751,762.577,591.7l27.665,111.959L795.661,843.4s26.594-8.208,30.455-1.181c0,0,11.915-16.609,13.429-23.845s-5.627-145.108-5.627-145.108,24.411-157.038,4.7-156.274S741.73,470.509,702.194,515.1Z" transform="translate(-106.04 -10.9)" fill="#6c63ff"/>
    <path id="路径_654" data-name="路径 654" d="M723.1,777.425s-18.178,40.176-19.9,42.037-13.568,20.262-4.61,19.915,30.107-10.138,45.675-25.1,36.092-40.871,34.231-42.593-14.609-6.61-14.609-6.61Z" transform="translate(-102.871 23.672)" fill="#575a89"/>
    <path id="路径_655" data-name="路径 655" d="M785.009,796.154s-1.1,17.984-4.4,25.289-2.888,18.054,6.069,17.706,32.107-4.833,32.107-4.833,1.375-10.818-.486-12.54-9.791-21.15-6.417-26.663S785.009,796.154,785.009,796.154Z" transform="translate(-92.153 27.246)" fill="#575a89"/>
    <path id="路径_656" data-name="路径 656" d="M799,278.6s19.1,29.76,26.539,36.648-13.5,22.053-13.5,22.053l-37.482,5.042s.471-34.107-1.459-37.621S799,278.6,799,278.6Z" transform="translate(-92.886 -38.814)" fill="#ffb9b9"/>
    <path id="路径_657" data-name="路径 657" d="M771.7,314.042s7.722,14.054,14.888,13.776,44.231-16.068,45.814-21.512,12.277,39,12.277,39L753.983,504.909,731.86,489.62l10.72-93.712,8.8-50.577Z" transform="translate(-98.171 -35.315)" fill="#6c63ff"/>
    <path id="路径_658" data-name="路径 658" d="M840.931,458.112c-3.618,7.568-5.878,15.46-5.564,23.54.014.358.028.717.059,1.074.858,16.58,6.966,35.756,9.158,49.7,1.59,10,1.138,17.305-4.717,19.022-14.193,4.139,2.069,7.1-52.841,25.373s-64.492,2.5-64.631-1.082,7.776-30.8,5.915-32.524-26.039,22.54-33.343,19.234-.834-21.5-.834-21.5,16.455-38.315,16.108-47.273,24.927-51.2,24.927-51.2l17.191-111.9s6.61-14.609,15.5-16.748,16.262,2.958,16.262,2.958l-14.873,32.872-15.691,58.021,2.625,21.428s18.247-38.385,30.232-53.2S823.949,326,823.949,326s5.965-20.129,1.462-26.144c-4.5-6.033,18.785-6.936,28.715,17.8,5.263,13.109,13.807,32.656,19.16,50.857,4.77,16.124,7.023,31.2,2.3,39.813C868.362,421.488,850.193,438.788,840.931,458.112Z" transform="translate(-103.356 -36.542)" fill="#575a89"/>
    <path id="路径_659" data-name="路径 659" d="M859.394,400.611c-7.222,13.162-25.39,30.463-34.652,49.786-2.419-8.715-5.37-17.733-5.37-17.733S808.053,372.1,841.534,356.45A22.41,22.41,0,0,1,857.1,360.8C861.867,376.923,864.12,392,859.394,400.611Z" transform="translate(-87.167 -28.828)" opacity="0.1"/>
    <path id="路径_660" data-name="路径 660" d="M745.022,392.191l-28.386,8.277L677.224,402l-4.055,34.246,64.77,4.665S754.118,395.426,745.022,392.191Z" transform="translate(-105.709 -24.224)" fill="#575a89"/>
    <path id="路径_661" data-name="路径 661" d="M781.344,494.231s-37.974,6.3-29.307,17.728,42.308-.587,42.308-.587Z" transform="translate(-95.744 -11.117)" fill="#ffb9b9"/>
    <path id="路径_662" data-name="路径 662" d="M825.4,461.5c.858,16.581,6.966,35.757,9.158,49.7-12.1,11.449-23.6,21.548-27.936,21.716-8.957.347-23.358-.889-28.663,1.111s-8.417-31.968-8.417-31.968,3.165-10.887,17.289-16.817C796.366,481.236,814.639,470.354,825.4,461.5Z" transform="translate(-93.33 -15.321)" opacity="0.1"/>
    <path id="路径_663" data-name="路径 663" d="M847.329,346.927s30.316-4.764,28.678,45.536,3.2,82.407-9,91.851-51.8,52.245-60.756,52.592-23.358-.888-28.663,1.111-8.417-31.968-8.417-31.968,3.166-10.888,17.289-16.818,47.4-26.956,47.119-34.122-8.417-31.968-8.417-31.968S813.847,362.578,847.329,346.927Z" transform="translate(-93.378 -30.054)" fill="#575a89"/>
    <circle id="椭圆_93" data-name="椭圆 93" cx="39.442" cy="39.442" r="39.442" transform="translate(639.933 204.97)" fill="#ffb9b9"/>
    <path id="路径_664" data-name="路径 664" d="M751.2,233.509a7.614,7.614,0,0,1-3.316,1.664,2.367,2.367,0,0,1-2.743-1.9c-.9,1.871-1.92,3.866-3.763,4.826s-4.691.155-4.957-1.906a8.692,8.692,0,0,1-2,4.225c-1.143,1.09-3.216,1.365-4.214.141.807,4.409.309,8.944.562,13.419s1.447,9.22,4.828,12.163c4.931,4.292,12.346,3.233,18.833,2.419a5.718,5.718,0,0,1,2.951.161c2.429,1.035,2.319,4.416,2.351,7.056A19.6,19.6,0,0,0,776.9,294.395a9.827,9.827,0,0,0,7.3-1.782c1.842-1.561,2.782-4.105,4.893-5.278,3.433-1.908,7.6.874,10.106,3.895s4.983,6.736,8.871,7.289c5.142.731,9.059-4.509,10.98-9.335a54.419,54.419,0,0,0-1.082-42.283C807.235,223.5,770.557,219.794,751.2,233.509Z" transform="translate(-98.383 -45.629)" fill="#2f2e41"/>
  </g>
</svg>
