<svg xmlns="http://www.w3.org/2000/svg" width="556.428" height="857.316" viewBox="0 0 556.428 857.316">
  <g id="组_219" data-name="组 219" transform="translate(0 -0.002)">
    <path id="路径_372" data-name="路径 372" d="M482.36,322.832l-8.441-.029-32.372-.1-7.19-.014-21.806-.056-5.389-.029h-2.391L292.317,322.3l-1.787-.014h-1.7l-6.837-.027-19.3-.043-9.314-.027-19.331-.056V42.155L472.512,21.1l8.442-.746Z" transform="translate(71.254 6.195)" opacity="0.2"/>
    <path id="路径_373" data-name="路径 373" d="M862.609,444.191v.028l-23.636-.07-8.737-.028-7.189-.014-10.327-.028-4.122-.014-7.344-.014-3.813-.014h-1.59l-2.349-.014h-.042l-17.741-.042-3.208-.014-45.485-.127-8.174-.028-33.358-.1-4.488-.014h-1.8a.044.044,0,0,0,.014-.028h-1.7l-6.838-.028-19.3-.042v.014l-9.314-.028-6.4-.014h-1.435l-19.936-.056V163.543L861.2,141.736v.746Z" transform="translate(-317.435 -115.192)" fill="#e6e6e6"/>
    <circle id="椭圆_59" data-name="椭圆 59" cx="9.848" cy="9.848" r="9.848" transform="translate(410.814 1.924)" opacity="0.2"/>
    <circle id="椭圆_60" data-name="椭圆 60" cx="9.848" cy="9.848" r="9.848" transform="translate(405.187 1.924)" fill="#3f3d56"/>
    <rect id="矩形_254" data-name="矩形 254" width="154.758" height="11.255" transform="translate(343.077 12.327) rotate(-4.568)" opacity="0.2"/>
    <rect id="矩形_255" data-name="矩形 255" width="154.758" height="11.255" transform="translate(337.449 12.327) rotate(-4.568)" fill="#e6e6e6"/>
    <path id="路径_374" data-name="路径 374" d="M816.259,339.114c-8.273-31.346-12.676-33.766-12.676-33.766L756.93,281.867l-.31-.113L730.4,301.1,719.1,283.71l-.563-.492s-.239.1-.7.281c-4.052,1.632-24.916,10.256-40.406,20.513l-.478-.07-18.276,9.089-3.278,12.113-3.785,13.971-13.028,60.524v.014l9.314.028v-.014l19.3.042,3.039-14.913,3.8,14.941h1.7a.044.044,0,0,1-.014.028h1.8l4.488.014,33.358.1,8.174.028,45.485.127,3.208.014,17.741.042h.042l2.349.014v-.042l1.21-13.183.732-3.686,3.447,16.9.014.028,7.344.014,4.122.014,10.327.028,7.189.014v-.028C824.77,386.751,819.3,350.651,816.259,339.114Z" transform="translate(-310.04 -72.563)" fill="#6c63ff" opacity="0.56"/>
    <path id="路径_375" data-name="路径 375" d="M758.848,260.524l.018.063c-.021,0-.027-.017-.018-.063-.186-.643-2.542-8.228-9.287-4.325-7.039,4.074-15.452-21.5-15.452-21.5s-21.19,5.833-34.125,4.939a8.012,8.012,0,0,1-2.549-.613,33.012,33.012,0,0,0,6.216,37.527l-2.283,20.356,11.74,18.262L739.2,295.6s.33,4.98,1.4-12.077a33.037,33.037,0,0,0,19.189-25.2C759.257,259.524,758.888,260.306,758.848,260.524Z" transform="translate(-293.122 -86.89)" fill="#ffb8b8" opacity="0.56"/>
    <path id="路径_376" data-name="路径 376" d="M760.161,264.777c2.882-6.556,10.607-25.854-2.958-37.482-11.223-9.62-50.812-18.206-63.465,7.335a7.945,7.945,0,0,0,4.073,10.849c.183-.378.39-.741.586-1.11a7.8,7.8,0,0,0,1.962.419c12.935.893,34.125-4.939,34.125-4.939s8.413,25.577,15.452,21.5c6.745-3.9,9.1,3.682,9.287,4.325.041-.218.41-1,.939-2.2a33.264,33.264,0,0,0,.347-4.406c.006.259.02.517.02.778a33.246,33.246,0,0,1-.368,4.939Z" transform="translate(-293.497 -92.042)" fill="#2f2e41" opacity="0.56"/>
    <ellipse id="椭圆_61" data-name="椭圆 61" cx="216.662" cy="33.766" rx="216.662" ry="33.766" transform="translate(0 789.787)" fill="#e6e6e6"/>
    <path id="路径_377" data-name="路径 377" d="M497.935,649.466,450.8,704.026l-.873,1.012L173.645,662.832V347.686H497.232Z" transform="translate(52.866 105.852)" fill="#3f3d56"/>
    <rect id="矩形_256" data-name="矩形 256" width="2.813" height="56.434" transform="matrix(0.075, -0.997, 0.997, 0.075, 253.84, 575.23)" fill="#e6e6e6"/>
    <rect id="矩形_257" data-name="矩形 257" width="2.813" height="59.24" transform="translate(391.724 587.894) rotate(-85.914)" fill="#e6e6e6"/>
    <path id="路径_378" data-name="路径 378" d="M450.37,419.037,173.211,402.154l-.171,2.808,126.712,7.718,2.155,253.36,2.814-.025-2.152-253.163L450.2,421.846Z" transform="translate(52.682 122.434)" fill="#e6e6e6"/>
    <path id="路径_379" data-name="路径 379" d="M433.248,649.466l-47.131,54.56V347.686h46.428Z" transform="translate(117.553 105.852)" opacity="0.2"/>
    <path id="路径_380" data-name="路径 380" d="M580.834,482.792H555.51V465.909l67.531-12.662,4.221-8.441,264.5,7.034v23.917L839,495.017l-34.469-.969s-52.055,43.613-113.958,39.393S580.834,482.792,580.834,482.792Z" transform="translate(-335.331 -22.923)" fill="#e6e6e6"/>
    <path id="路径_381" data-name="路径 381" d="M795.594,462.753,780.821,473.3l-41.377-1c0,.014-.014,0-.014,0h-.07l-3.152-.07h-.014l-2.617-.07-8.258-.2-.689-.014-7.3-.169-.267-.014-9.075-.211-.591-.014-6.711-.169-1.083-.014-7.879-.2-2.532-.056-14.168-.338-3.573-.084-37.649-.9s-26.83,1.337-28.1-6.458a3.835,3.835,0,0,1-.042-.577c0-4.432,4.671-5.374,9.089-5.262a41.025,41.025,0,0,1,7.794,1.041l10.8.267,6.739.155,21.146.521,18.079.436,6.4.169,9.159.225,3.63.084,13.478.323,6.3.155,13.309.324Z" transform="translate(-320.062 -19.063)" fill="#ccc"/>
    <circle id="椭圆_62" data-name="椭圆 62" cx="2.814" cy="2.814" r="2.814" transform="translate(393.931 445.097)" fill="#3f3d56"/>
    <ellipse id="椭圆_63" data-name="椭圆 63" cx="26.731" cy="2.814" rx="26.731" ry="2.814" transform="translate(371.422 435.248)" fill="#ccc"/>
    <path id="路径_382" data-name="路径 382" d="M10.436,0H34.445V11.255H0v-.82A10.436,10.436,0,0,1,10.436,0Z" transform="matrix(0.972, 0.237, -0.237, 0.972, 371.288, 399.828)" fill="#3f3d56"/>
    <path id="路径_383" data-name="路径 383" d="M0,0H12.662V.41A5.218,5.218,0,0,1,7.444,5.628H5.218A5.218,5.218,0,0,1,0,.41V0Z" transform="translate(372.613 411.129) rotate(8.546)" fill="#3f3d56"/>
    <path id="路径_384" data-name="路径 384" d="M702.77,442.31l-17.495-4.264a5.609,5.609,0,0,1-5.856,3.078l-1.391-.209a5.608,5.608,0,0,1-4.758-5.8l-2.979-.726a11.244,11.244,0,0,0-.986,2.574l3.965.966a5.608,5.608,0,0,0,4.758,5.8l1.391.209a5.609,5.609,0,0,0,5.856-3.078l17.495,4.264,2.665-10.935-.647-.158Z" transform="translate(-300.686 -26.203)" opacity="0.2"/>
    <path id="路径_385" data-name="路径 385" d="M695.095,467.809h0A10.274,10.274,0,0,1,684.835,457l1.541-29.282,18.993-.7v30.526A10.274,10.274,0,0,1,695.1,467.809Z" transform="translate(-295.962 -28.341)" fill="#3f3d56"/>
    <path id="路径_386" data-name="路径 386" d="M704.3,431.489H687.2c2.966-4.5,1.116-9.111-3.036-13.774a1.871,1.871,0,0,1,1.4-3.108h6.518c6.748,0,12.218,6.3,12.218,14.069Z" transform="translate(-296.305 -32.117)" fill="#3f3d56"/>
    <path id="路径_387" data-name="路径 387" d="M689.792,417.714a1.871,1.871,0,0,1,1.4-3.108h-5.628a1.871,1.871,0,0,0-1.4,3.108c4.152,4.663,6,9.274,3.036,13.774h5.628C695.793,426.989,693.944,422.378,689.792,417.714Z" transform="translate(-296.305 -32.117)" opacity="0.2"/>
    <path id="路径_388" data-name="路径 388" d="M627.345,440.262l21.637,7.648s51.468,4.106,44.79,17.2-50.728,4.634-50.728,4.634l-20.862-14.484Z" transform="translate(-315.033 -24.306)" fill="#ffb8b8"/>
    <path id="路径_389" data-name="路径 389" d="M654.573,456.378a5.613,5.613,0,0,0-5.6,5.34,4.211,4.211,0,0,0-1.058-.711,5.644,5.644,0,1,0-4.7.769,4.215,4.215,0,1,0,7.055,3.821,5.617,5.617,0,1,0,4.3-9.219Z" transform="translate(-309.883 -21.129)" fill="#fff"/>
    <path id="路径_390" data-name="路径 390" d="M662.123,458.535a5.613,5.613,0,0,0-5.6,5.34,4.211,4.211,0,0,0-1.058-.711,5.644,5.644,0,1,0-4.7.769,4.215,4.215,0,1,0,7.055,3.821,5.617,5.617,0,1,0,4.3-9.219Z" transform="translate(-307.584 -20.473)" fill="#fff"/>
    <path id="路径_391" data-name="路径 391" d="M676.858,478.467l-19.585,32.345-41.18-27.646-47.3-31.739-28.518-74.875-29-53.1,36.34-10.706s12.507.478,28.673,30.15,30.544,81.065,30.544,81.065L626.152,439Z" transform="translate(-348.797 -63.127)" fill="#6c63ff"/>
    <path id="路径_392" data-name="路径 392" d="M676.858,478.467l-19.585,32.345-41.18-27.646-47.3-31.739-28.518-74.875-29-53.1,36.34-10.706s12.507.478,28.673,30.15,30.544,81.065,30.544,81.065L626.152,439Z" transform="translate(-348.797 -63.127)" opacity="0.2"/>
    <path id="路径_393" data-name="路径 393" d="M722.968,475.755l-50.17-1.2-3.982-4.516L666,466.849l-3.081-3.489-3.419-3.869,5.825-9.032,2.772-4.305,11.227,7.372,7.963,5.22s6.669,2.223,14.6,5.571C709.265,467.44,717.749,471.548,722.968,475.755Z" transform="translate(-303.67 -22.512)" fill="#ffb8b8"/>
    <circle id="椭圆_64" data-name="椭圆 64" cx="34.402" cy="34.402" r="34.402" transform="translate(190.719 126.667)" fill="#ffb8b8"/>
    <path id="路径_394" data-name="路径 394" d="M539.662,252.116,536.222,302l43,5.16s0-41.282,3.44-46.442S539.662,252.116,539.662,252.116Z" transform="translate(-341.203 -81.587)" fill="#ffb8b8"/>
    <path id="路径_395" data-name="路径 395" d="M646.493,309.625l-55.7-23.588s-26.608-20.531-42.216-5.352L541.568,290.7s-42.681,22.947-42.681,41.868l4.839,95.74s-13.761,53.323,6.88,56.763l111.806,10.32s15.481-18.921,1.72-43l5.16-56.763Z" transform="translate(-352.57 -74.592)" fill="#6c63ff"/>
    <path id="路径_396" data-name="路径 396" d="M583.033,303.285l37.842-1.72s2.773,2.927,11.373,35.608,19.588,86.518,19.588,86.518l54.977,69.648L680.082,520.07l-71.752-78.786-9.817-79.516Z" transform="translate(-326.951 -66.532)" fill="#6c63ff"/>
    <path id="路径_397" data-name="路径 397" d="M631.26,443.88,507.591,433s-12.218,77.964-10.5,108.926,3.44,79.124,3.44,79.124L486.773,830.9l53.323-6.88,6.88-173.728,22.361-94.6,25.8,120.406,17.2,154.807,46.442-5.16L643.3,638.25S657.062,469.682,631.26,443.88Z" transform="translate(-356.258 -26.517)" fill="#2f2e41"/>
    <path id="路径_398" data-name="路径 398" d="M618.753,727.483l15.481,5.16s32.682-8.6,24.081,13.761-32.682,18.921-32.682,18.921-29.241,22.361-41.282,5.16l6.88-36.122Z" transform="translate(-326.55 63.138)" fill="#2f2e41"/>
    <path id="路径_399" data-name="路径 399" d="M522.493,727.483l15.481,5.16s32.682-8.6,24.081,13.761-32.682,18.921-32.682,18.921-29.241,22.361-41.282,5.16l6.88-36.122Z" transform="translate(-355.856 63.138)" fill="#2f2e41"/>
    <path id="路径_400" data-name="路径 400" d="M544.153,285.512s-36.122-25.8-17.2-56.763c13.126-21.479,40.326-19.779,55.755-16.723a26.066,26.066,0,0,1,19.069,15c2.58,6.02,2.58,12.041-7.74,12.041-20.641,0-10.321,15.481-10.321,15.481s-13.761,3.44-10.321,15.481S544.153,285.512,544.153,285.512Z" transform="translate(-345.694 -94.341)" fill="#2f2e41"/>
    <circle id="椭圆_65" data-name="椭圆 65" cx="4.221" cy="4.221" r="4.221" transform="translate(413.628 445.097)" fill="#fff"/>
    <path id="路径_401" data-name="路径 401" d="M713.66,465.979a5.588,5.588,0,0,0-2.1-4.375,5.652,5.652,0,0,0-3.531-1.252c-.07,0-.127.014-.2.014a5.6,5.6,0,0,0-10.538-.943,4.171,4.171,0,0,0-5.332,1.266,48.636,48.636,0,0,1-12.071-3.151,5.593,5.593,0,0,0-5.051,3.18,5.364,5.364,0,0,0-.577,2.448,5.546,5.546,0,0,0,.816,2.87,4.215,4.215,0,0,0-3.63,4.164,4.054,4.054,0,0,0,.239,1.379l7.879.2a3.783,3.783,0,0,0,.239-.8,5.8,5.8,0,0,0,.844.816l6.711.169.38-.3a2.365,2.365,0,0,0,.211.31l9.075.211a1.885,1.885,0,0,0,.155-.2,1.533,1.533,0,0,0,.113.211l7.3.169a4.152,4.152,0,0,0,.563-1.576.569.569,0,0,0,.126.07,4.461,4.461,0,0,0-.07.746,4.653,4.653,0,0,0,.07.774l8.258.2a4.364,4.364,0,0,0,.113-.971,4.244,4.244,0,0,0-.9-2.589,5.588,5.588,0,0,0,.9-3.039Zm-15.068-.113a4.3,4.3,0,0,1-.83.774c.084.211.126.436.2.647a4.011,4.011,0,0,1,1.252-.9,5.5,5.5,0,0,1-.619-.52Z" transform="translate(-300.032 -19.475)" fill="#fff"/>
    <circle id="椭圆_66" data-name="椭圆 66" cx="4.221" cy="4.221" r="4.221" transform="translate(451.615 446.503)" fill="#fff"/>
    <path id="路径_402" data-name="路径 402" d="M742.781,467.058a5.588,5.588,0,0,0-2.1-4.375,5.653,5.653,0,0,0-3.531-1.252c-.07,0-.127.014-.2.014a5.6,5.6,0,0,0-10.538-.943,4.171,4.171,0,0,0-5.332,1.266,48.637,48.637,0,0,1-12.071-3.151,5.593,5.593,0,0,0-5.051,3.18,5.364,5.364,0,0,0-.577,2.448,5.547,5.547,0,0,0,.816,2.87,4.215,4.215,0,0,0-3.63,4.164,4.056,4.056,0,0,0,.239,1.379l7.879.2a3.78,3.78,0,0,0,.239-.8,5.8,5.8,0,0,0,.844.816l6.711.169.38-.3a2.4,2.4,0,0,0,.211.31l9.075.211a1.866,1.866,0,0,0,.155-.2,1.547,1.547,0,0,0,.113.211l7.3.169a4.15,4.15,0,0,0,.563-1.576.569.569,0,0,0,.127.07,4.462,4.462,0,0,0-.07.746,4.632,4.632,0,0,0,.07.774l8.258.2a4.371,4.371,0,0,0,.113-.971,4.245,4.245,0,0,0-.9-2.589A5.588,5.588,0,0,0,742.781,467.058Zm-15.068-.113a4.3,4.3,0,0,1-.83.774c.084.211.126.436.2.647a4.015,4.015,0,0,1,1.252-.9,5.5,5.5,0,0,1-.619-.522Z" transform="translate(-291.166 -19.146)" fill="#fff"/>
    <circle id="椭圆_67" data-name="椭圆 67" cx="3.166" cy="3.166" r="3.166" transform="translate(391.821 445.8)" fill="#fff"/>
    <path id="路径_403" data-name="路径 403" d="M694.48,465.674a4.191,4.191,0,0,0-1.572-3.282,4.239,4.239,0,0,0-2.649-.939c-.053,0-.095.011-.148.011a4.2,4.2,0,0,0-7.9-.707,3.128,3.128,0,0,0-4,.95,36.477,36.477,0,0,1-9.054-2.364,4.194,4.194,0,0,0-3.788,2.385,4.021,4.021,0,0,0-.433,1.836,4.159,4.159,0,0,0,.612,2.152,3.161,3.161,0,0,0-2.722,3.123,3.041,3.041,0,0,0,.179,1.034l5.909.148a2.838,2.838,0,0,0,.179-.6,4.345,4.345,0,0,0,.633.612l5.033.127.285-.222a1.792,1.792,0,0,0,.158.232l6.806.158a1.4,1.4,0,0,0,.116-.148,1.141,1.141,0,0,0,.084.158l5.476.127a3.112,3.112,0,0,0,.422-1.182.423.423,0,0,0,.095.053,3.351,3.351,0,0,0-.053.559,3.491,3.491,0,0,0,.053.58l6.194.148a3.277,3.277,0,0,0,.084-.728,3.183,3.183,0,0,0-.675-1.942,4.192,4.192,0,0,0,.675-2.279Zm-11.3-.084a3.227,3.227,0,0,1-.623.58c.063.158.095.327.148.485a3.007,3.007,0,0,1,.939-.675,4.141,4.141,0,0,1-.464-.391Z" transform="translate(-302.659 -18.818)" fill="#fff"/>
    <circle id="椭圆_68" data-name="椭圆 68" cx="3.166" cy="3.166" r="3.166" transform="translate(346.801 445.8)" fill="#fff"/>
    <path id="路径_404" data-name="路径 404" d="M659.967,465.674a4.192,4.192,0,0,0-1.572-3.282,4.24,4.24,0,0,0-2.648-.939c-.053,0-.095.011-.148.011a4.2,4.2,0,0,0-7.9-.707,3.128,3.128,0,0,0-4,.95,36.478,36.478,0,0,1-9.053-2.364,4.2,4.2,0,0,0-3.788,2.385,4.023,4.023,0,0,0-.432,1.836,4.16,4.16,0,0,0,.612,2.152,3.161,3.161,0,0,0-2.722,3.123,3.042,3.042,0,0,0,.18,1.034l5.909.148a2.835,2.835,0,0,0,.179-.6,4.343,4.343,0,0,0,.633.612l5.033.127.285-.222a1.8,1.8,0,0,0,.158.232l6.806.158a1.415,1.415,0,0,0,.116-.148,1.147,1.147,0,0,0,.084.158l5.476.127a3.114,3.114,0,0,0,.422-1.182.427.427,0,0,0,.095.053,3.352,3.352,0,0,0-.053.559,3.491,3.491,0,0,0,.053.58l6.194.148a3.269,3.269,0,0,0,.085-.728,3.184,3.184,0,0,0-.675-1.942,4.192,4.192,0,0,0,.675-2.279Zm-11.3-.084a3.226,3.226,0,0,1-.623.58c.063.158.1.327.148.485a3.012,3.012,0,0,1,.939-.675,4.129,4.129,0,0,1-.465-.391Z" transform="translate(-313.166 -18.818)" fill="#fff"/>
    <path id="路径_405" data-name="路径 405" d="M771.207,434.846V426.4h-7.035v1.407c-.777,0-1.407.945-1.407,2.11s.63,2.11,1.407,2.11v2.814h-5.628v28.138h18.29V434.846Z" transform="translate(-273.517 -28.525)" fill="#3f3d56"/>
  </g>
</svg>
