<svg id="组_215" data-name="组 215" xmlns="http://www.w3.org/2000/svg" width="912.414" height="617.023" viewBox="0 0 912.414 617.023">
  <rect id="矩形_197" data-name="矩形 197" width="117.448" height="131.328" transform="translate(161.818 286.145)" fill="#ccc"/>
  <path id="路径_262" data-name="路径 262" d="M99.755,579.25H39.963L33.557,528h72.6Z" transform="translate(2.272 35.748)" fill="#e6e6e6"/>
  <path id="路径_263" data-name="路径 263" d="M380.858,702.34l-2.018,27.584a8.782,8.782,0,0,0,9.289,9.406l14.168-.858a4.479,4.479,0,0,0,4.074-5.557l-7.865-31.458Z" transform="translate(-158.768 -124.464)" fill="#e6e6e6"/>
  <path id="路径_264" data-name="路径 264" d="M491.85,718.625c16.675,3.9,28.587,9.445,36.412,16.948a16.052,16.052,0,0,0,10.275,4.405c4.908.258,8.921-.292,11.936-1.639h0a4.729,4.729,0,0,0,2.8-3.9,4.812,4.812,0,0,0-2.016-4.448l-39.547-28.139-16.8,6.72L491,712.492a3.88,3.88,0,0,0,.854,6.133Z" transform="translate(-151.25 -124.437)" fill="#e6e6e6"/>
  <path id="路径_265" data-name="路径 265" d="M450.83,303.481l-113.041-1.047c.284-16.465,4.115-32.633,12.489-47.1,5.5-9.5,5.381-19.843,4.055-28.555-2.045-13.445,2.711-27.2,13.279-35.759a42.619,42.619,0,0,1,28.66-9.483l2.2.091a42.717,42.717,0,0,1,35.1,21.108,35.584,35.584,0,0,1,4.23,21.675c-.716,7.048,1,14.168,5.008,21.356C449.719,261.552,451.218,281.749,450.83,303.481Z" transform="translate(-161.546 -159.667)" fill="#2f2e41"/>
  <path id="路径_266" data-name="路径 266" d="M527.037,720.905l-22.186,5.788L396.817,491.332,403.569,720.9H381.383C357.676,612.9,314.875,488.244,334.118,448.89L448.9,442.138Z" transform="translate(-162.122 -142.021)" fill="#6c63ff"/>
  <circle id="椭圆_29" data-name="椭圆 29" cx="29.902" cy="29.902" r="29.902" transform="translate(203.828 44.501)" fill="#ffb9b9"/>
  <path id="路径_267" data-name="路径 267" d="M419.142,284.434l-49.194-2.894c4.821-11.065,6.747-21.721,4.823-31.832h36.655C411.343,257.471,415.206,270.9,419.142,284.434Z" transform="translate(-159.369 -155.049)" fill="#ffb9b9"/>
  <path id="路径_268" data-name="路径 268" d="M279.062,301.573,171.028,309.29,182.12,117.818l18.81-5.305,21.221,4.823,21.221-10.611,13.5,4.824Z" transform="translate(11.579 7.226)" fill="#6c63ff"/>
  <path id="路径_269" data-name="路径 269" d="M365.593,600.56,291.8,583.68c21.942-72.762,61.472-239.22,48.712-298.541L379.1,267.776Z" transform="translate(-164.659 -153.826)" fill="#e6e6e6"/>
  <path id="路径_270" data-name="路径 270" d="M329.262,389.424l-27.973-17.363,23.856-69.87a32.964,32.964,0,0,1,14.408-17.114l8.036-4.652-4.823,70.415Z" transform="translate(-164.017 -152.969)" fill="#e6e6e6"/>
  <path id="路径_271" data-name="路径 271" d="M511.931,584.767c-23.29,13.475-81.508,20.986-107.069,11.575-1.881-65.741-5.57-251.7,6.27-330.372l42.442,17.363-3.858,52.088C429.424,379.979,488.343,535.176,511.931,584.767Z" transform="translate(-157.144 -153.948)" fill="#e6e6e6"/>
  <path id="路径_272" data-name="路径 272" d="M332.98,219.569l-26.044-8.682-34.725-39.549L278,121.18l57.875,81.026Z" transform="translate(18.43 8.204)" fill="#e6e6e6"/>
  <path id="路径_273" data-name="路径 273" d="M425.414,410.411a7.245,7.245,0,0,0,8.654,5.458l22.108-5.007-3.2-14.112-22.108,5.006a7.236,7.236,0,0,0-5.458,8.654Z" transform="translate(-155.625 -145.093)" fill="#ffb9b9"/>
  <path id="路径_274" data-name="路径 274" d="M419.57,225.1c-16.609-6.829-33.012-7.324-49.194-.964l-6.752-24.115h61.734Z" transform="translate(-159.797 -158.413)" fill="#2f2e41"/>
  <path id="路径_275" data-name="路径 275" d="M444.029,396.7l12.54,23.15c21.091-5.883,39.371-24.428,56.911-46.3l-4.823-15.433-29.9,7.717Z" transform="translate(-154.353 -147.709)" fill="#e6e6e6"/>
  <path id="路径_276" data-name="路径 276" d="M437.16,355.654H433.3c0-54.571-11.236-92.6-22.185-92.6l-.965-3.858c9.82,0,16.08,15.828,19.6,29.106C434.53,306.3,437.16,330.221,437.16,355.654Z" transform="translate(-156.647 -154.407)" fill="#3f3d56"/>
  <path id="路径_277" data-name="路径 277" d="M352.577,342.027h-3.859c0-49.978,11.314-81.026,27.973-81.026l-.965,3.858C364.2,264.86,352.577,288.721,352.577,342.027Z" transform="translate(-160.806 -154.284)" fill="#3f3d56"/>
  <circle id="椭圆_30" data-name="椭圆 30" cx="9.646" cy="9.646" r="9.646" transform="translate(268.937 192.566)" fill="#3f3d56"/>
  <path id="路径_278" data-name="路径 278" d="M338.122,360.161h-3.859c0-13.829,7.789-25.079,17.363-25.079v3.859C344.18,338.941,338.122,348.46,338.122,360.161Z" transform="translate(-161.784 -149.269)" fill="#3f3d56"/>
  <path id="路径_279" data-name="路径 279" d="M367.888,360.161H364.03c0-11.7-6.058-21.221-13.5-21.221v-3.858C360.1,335.082,367.888,346.332,367.888,360.161Z" transform="translate(-160.684 -149.269)" fill="#3f3d56"/>
  <circle id="椭圆_31" data-name="椭圆 31" cx="3.858" cy="3.858" r="3.858" transform="translate(201.416 207.999)" fill="#3f3d56"/>
  <circle id="椭圆_32" data-name="椭圆 32" cx="3.858" cy="3.858" r="3.858" transform="translate(170.549 207.999)" fill="#3f3d56"/>
  <path id="路径_280" data-name="路径 280" d="M118.177,165.193l24.074,4.3,55.023,78.237-29.232-6.878Z" transform="translate(8.001 11.184)" fill="#6c63ff"/>
  <path id="路径_281" data-name="路径 281" d="M287.028,325.347a2.047,2.047,0,0,0-1.68,3.172l51.433,78.036a2.04,2.04,0,0,0,1.239.865l23.93,5.63a2.044,2.044,0,0,0,2.14-3.166l-56.47-80.293a2.033,2.033,0,0,0-1.313-.836l-18.893-3.374A2.211,2.211,0,0,0,287.028,325.347Z" transform="translate(-165.119 -149.928)" fill="#3f3d56"/>
  <path id="路径_282" data-name="路径 282" d="M316.949,377.748l1.429,14.4,22.557-2.239a7.235,7.235,0,1,0-1.429-14.4Z" transform="translate(-162.957 -146.534)" fill="#ffb9b9"/>
  <path id="路径_283" data-name="路径 283" d="M298.578,376.807a18.607,18.607,0,0,0,18.585,18.483h3.709l2.7-22.5-22.357-8.049Z" transform="translate(-164.201 -147.261)" fill="#e6e6e6"/>
  <rect id="矩形_198" data-name="矩形 198" width="439.894" height="231.692" transform="translate(472.52)" fill="#e6e6e6"/>
  <path id="路径_284" data-name="路径 284" d="M627.278,379.118h414.27V173.051H627.278Z" transform="translate(-141.946 -160.239)" fill="#fff"/>
  <rect id="矩形_199" data-name="矩形 199" width="147.343" height="147.343" transform="translate(517.364 42.708)" fill="#3f3d56"/>
  <circle id="椭圆_33" data-name="椭圆 33" cx="4.271" cy="4.271" r="4.271" transform="translate(625.202 101.432)" fill="#6c63ff"/>
  <circle id="椭圆_34" data-name="椭圆 34" cx="4.271" cy="4.271" r="4.271" transform="translate(609.186 86.484)" fill="#6c63ff"/>
  <path id="路径_285" data-name="路径 285" d="M749.272,261.27a8.488,8.488,0,0,0-4.449,1.26,26.8,26.8,0,0,0-4.127-4.842c.018-.228.035-.456.035-.689a8.536,8.536,0,0,0-14.464-6.147,26.172,26.172,0,0,0-6.9-.06c0-.067.01-.132.01-.2a8.542,8.542,0,1,0-14.157,6.426,26.865,26.865,0,0,0-3.87,4.093,8.541,8.541,0,1,0-5.463,15.106h.028c-.015.355-.028.71-.028,1.069a26.726,26.726,0,0,0,.772,6.374,16.009,16.009,0,1,0,20.895,19.84A26.661,26.661,0,0,0,735,300.911a8.543,8.543,0,1,0,11.2-11.2,26.546,26.546,0,0,0,3.04-11.357l.027,0a8.542,8.542,0,0,0,0-17.083Z" transform="translate(-137.951 -155.568)" fill="#6c63ff"/>
  <rect id="矩形_200" data-name="矩形 200" width="42.708" height="6.406" transform="translate(566.478 39.505)" fill="#e6e6e6"/>
  <rect id="矩形_201" data-name="矩形 201" width="147.343" height="147.343" transform="translate(705.28 42.708)" fill="#3f3d56"/>
  <circle id="椭圆_35" data-name="椭圆 35" cx="1.922" cy="1.922" r="1.922" transform="translate(805.003 138.802)" fill="#6c63ff"/>
  <circle id="椭圆_36" data-name="椭圆 36" cx="1.922" cy="1.922" r="1.922" transform="translate(797.796 132.075)" fill="#6c63ff"/>
  <path id="路径_286" data-name="路径 286" d="M922.625,293.4a3.82,3.82,0,0,0-2,.567,12.073,12.073,0,0,0-1.857-2.179c.008-.1.015-.205.015-.31a3.841,3.841,0,0,0-6.509-2.766,11.776,11.776,0,0,0-3.1-.027c0-.03,0-.059,0-.09a3.844,3.844,0,1,0-6.371,2.891,12.072,12.072,0,0,0-1.741,1.842,3.844,3.844,0,1,0-2.458,6.8h.012c-.007.16-.012.32-.012.481a12.036,12.036,0,0,0,.347,2.868,7.2,7.2,0,1,0,9.4,8.928,12,12,0,0,0,7.853-1.165,3.844,3.844,0,1,0,5.041-5.041,11.944,11.944,0,0,0,1.368-5.11h.012a3.844,3.844,0,1,0,0-7.687Z" transform="translate(-123.869 -152.677)" fill="#6c63ff"/>
  <circle id="椭圆_37" data-name="椭圆 37" cx="1.922" cy="1.922" r="1.922" transform="translate(820.08 102.331)" fill="#6c63ff"/>
  <circle id="椭圆_38" data-name="椭圆 38" cx="1.922" cy="1.922" r="1.922" transform="translate(824.602 93.57)" fill="#6c63ff"/>
  <path id="路径_287" data-name="路径 287" d="M942.373,252.99a3.819,3.819,0,0,0-1.089-1.774,12.073,12.073,0,0,0,1.594-2.378c.1-.02.2-.041.3-.069a3.841,3.841,0,0,0,.9-7.015,11.788,11.788,0,0,0-.815-3c.029-.008.058-.012.087-.02a3.844,3.844,0,1,0-4.51-5.348,12.087,12.087,0,0,0-2.245-1.177,3.843,3.843,0,1,0-7.21-.523l0,.012c-.156.037-.311.075-.466.119a12.043,12.043,0,0,0-2.668,1.113,7.2,7.2,0,1,0-6.043,11.47,12,12,0,0,0,3.249,7.242,3.844,3.844,0,1,0,6.219,3.486,11.943,11.943,0,0,0,5.29-.068l0,.012a3.844,3.844,0,0,0,7.4-2.084Z" transform="translate(-122.585 -156.6)" fill="#6c63ff"/>
  <circle id="椭圆_39" data-name="椭圆 39" cx="1.922" cy="1.922" r="1.922" transform="translate(745.644 76.214)" fill="#6c63ff"/>
  <circle id="椭圆_40" data-name="椭圆 40" cx="1.922" cy="1.922" r="1.922" transform="translate(735.817 77.002)" fill="#6c63ff"/>
  <path id="路径_288" data-name="路径 288" d="M868.935,239.962a3.819,3.819,0,0,0-.931,1.861,12.072,12.072,0,0,0-2.861-.1c-.07-.075-.141-.15-.219-.221a3.841,3.841,0,0,0-6.431,2.942,11.768,11.768,0,0,0-2.113,2.275c-.022-.021-.041-.043-.063-.064a3.844,3.844,0,1,0-2.16,6.654,12.116,12.116,0,0,0,.187,2.528,3.843,3.843,0,1,0,3.363,6.4l.008-.009c.114.112.228.224.347.333a12.031,12.031,0,0,0,2.354,1.678,7.2,7.2,0,1,0,12.932-.925,12,12,0,0,0,4.434-6.584,3.844,3.844,0,1,0-.324-7.122,11.949,11.949,0,0,0-2.852-4.456l.009-.008a3.844,3.844,0,1,0-5.677-5.183Z" transform="translate(-126.876 -155.794)" fill="#6c63ff"/>
  <rect id="矩形_202" data-name="矩形 202" width="42.708" height="6.406" transform="translate(754.394 39.505)" fill="#e6e6e6"/>
  <path id="路径_289" data-name="路径 289" d="M198.531,674.584c15.4,20.618,47.355,22.789,47.355,22.789s7-31.259-8.4-51.877-47.355-22.789-47.355-22.789S183.135,653.965,198.531,674.584Z" transform="translate(-171.65 -129.795)" fill="#e6e6e6"/>
  <path id="路径_290" data-name="路径 290" d="M273.4,680.725c-10.159,13.605-31.248,15.037-31.248,15.037s-4.617-20.627,5.542-34.232,31.248-15.038,31.248-15.038S283.562,667.119,273.4,680.725Z" transform="translate(-168.092 -128.185)" fill="#e6e6e6"/>
  <rect id="矩形_203" data-name="矩形 203" width="554.733" height="2.392" transform="translate(0 614.631)" fill="#3f3d56"/>
</svg>
