<svg id="组_218" data-name="组 218" xmlns="http://www.w3.org/2000/svg" width="908.624" height="777.899" viewBox="0 0 908.624 777.899">
  <ellipse id="椭圆_47" data-name="椭圆 47" cx="95.372" cy="194.598" rx="95.372" ry="194.598" transform="translate(28.199 135.95)" fill="#6c63ff"/>
  <path id="路径_311" data-name="路径 311" d="M268.384,393.617c4.757-84.707,14.343-141.924,14.439-142.492l-2.08-.352c-.1.569-9.7,57.877-14.464,142.694-4.4,78.281-5.458,196.685,14.463,316.214l2.081-.346C262.936,590.008,263.994,471.783,268.384,393.617Z" transform="translate(-145.688 -61.05)" fill="#3f3d56"/>
  <rect id="矩形_244" data-name="矩形 244" width="97.806" height="2.11" transform="translate(122.581 337.237) rotate(-28.157)" fill="#3f3d56"/>
  <rect id="矩形_245" data-name="矩形 245" width="2.11" height="97.806" transform="translate(31.546 316.077) rotate(-61.858)" fill="#3f3d56"/>
  <ellipse id="椭圆_48" data-name="椭圆 48" cx="123.73" cy="252.458" rx="123.73" ry="252.458" transform="translate(661.164 0)" fill="#6c63ff"/>
  <path id="路径_312" data-name="路径 312" d="M929.079,316.1c6.173-109.911,18.611-184.152,18.736-184.889l-1.972-.334c-.125.738-12.579,75.065-18.759,185.08C921.379,417.49,920,571.07,945.843,726.1l1.973-.328C922.008,570.933,923.382,417.523,929.079,316.1Z" transform="translate(-145.688 -61.05)" fill="#3f3d56"/>
  <rect id="矩形_246" data-name="矩形 246" width="126.887" height="2" transform="translate(783.784 261.463) rotate(-28.157)" fill="#3f3d56"/>
  <rect id="矩形_247" data-name="矩形 247" width="2" height="126.887" transform="translate(665.681 233.362) rotate(-61.858)" fill="#3f3d56"/>
  <ellipse id="椭圆_49" data-name="椭圆 49" cx="46.229" cy="94.325" rx="46.229" ry="94.325" transform="translate(589.591 384.643)" fill="#e6e6e6"/>
  <path id="路径_313" data-name="路径 313" d="M781.468,544.082l.274.512,41.8-22.372-.943-1.764-41.041,21.967c2.271-41.8,6.916-69.863,7.01-70.415l-1.972-.334c-.1.6-5.621,33.927-7.58,82.145L737.62,531.665l-.943,1.764,41.8,22.372.5-.933c-1.567,39.8-.689,89.56,7.62,139.41l1.973-.328C779.506,639.6,779.307,585.347,781.468,544.082Z" transform="translate(-145.688 -61.05)" fill="#3f3d56"/>
  <path id="路径_314" data-name="路径 314" d="M1015.75,746.816c-246.232-77.947-469.509-73.795-613.455-56.585C246.344,708.876,147.387,746.42,146.406,746.8l-.718-1.867c.984-.378,100.173-38.011,256.365-56.685a1486.917,1486.917,0,0,1,276.89-7.083,1444.3,1444.3,0,0,1,337.405,63.748Z" transform="translate(-145.688 -61.05)" fill="#3f3d56"/>
  <path id="路径_315" data-name="路径 315" d="M462.2,724.787s.691-14.47,14.847-12.788" transform="translate(-145.688 -61.05)" fill="#3f3d56"/>
  <circle id="椭圆_50" data-name="椭圆 50" cx="7.085" cy="7.085" r="7.085" transform="translate(305.427 635.796)" fill="#6c63ff"/>
  <rect id="矩形_248" data-name="矩形 248" width="2" height="14" transform="translate(311.359 654.813)" fill="#3f3d56"/>
  <path id="路径_316" data-name="路径 316" d="M720.2,727.787s.691-14.47,14.847-12.788" transform="translate(-145.688 -61.05)" fill="#3f3d56"/>
  <circle id="椭圆_51" data-name="椭圆 51" cx="7.085" cy="7.085" r="7.085" transform="translate(563.427 638.796)" fill="#6c63ff"/>
  <rect id="矩形_249" data-name="矩形 249" width="2" height="14" transform="translate(569.359 657.813)" fill="#3f3d56"/>
  <path id="路径_317" data-name="路径 317" d="M295.2,702.787s.691-14.47,14.847-12.788" transform="translate(-145.688 -61.05)" fill="#3f3d56"/>
  <circle id="椭圆_52" data-name="椭圆 52" cx="7.085" cy="7.085" r="7.085" transform="translate(138.427 613.796)" fill="#6c63ff"/>
  <rect id="矩形_250" data-name="矩形 250" width="2" height="14" transform="translate(144.359 632.813)" fill="#3f3d56"/>
  <path id="路径_318" data-name="路径 318" d="M404.2,683.787s.691-14.47,14.847-12.788" transform="translate(-145.688 -61.05)" fill="#3f3d56"/>
  <circle id="椭圆_53" data-name="椭圆 53" cx="7.085" cy="7.085" r="7.085" transform="translate(247.427 594.796)" fill="#6c63ff"/>
  <rect id="矩形_251" data-name="矩形 251" width="2" height="14" transform="translate(253.359 613.813)" fill="#3f3d56"/>
  <path id="路径_319" data-name="路径 319" d="M677.2,710.787s.691-14.47,14.847-12.788" transform="translate(-145.688 -61.05)" fill="#3f3d56"/>
  <circle id="椭圆_54" data-name="椭圆 54" cx="7.085" cy="7.085" r="7.085" transform="translate(520.427 621.796)" fill="#6c63ff"/>
  <rect id="矩形_252" data-name="矩形 252" width="2" height="14" transform="translate(526.359 640.813)" fill="#3f3d56"/>
  <path id="路径_320" data-name="路径 320" d="M984.7,681.78l41.158,61.028-38.319,38.319-4.967-9.935,8.516-19.87s-1.419-18.45-6.387-23.418-26.966-34.772-26.966-34.772Z" transform="translate(-145.688 -61.05)" fill="#ffb8b8"/>
  <path id="路径_321" data-name="路径 321" d="M932.19,484.5s7.8,12.352-8.517,65.574c0,0,76.13,128.488,64.066,137s-44.709,27.361-53.224,21.684S864.066,510.76,864.066,510.76Z" transform="translate(-145.688 -61.05)" fill="#2f2e41"/>
  <path id="路径_322" data-name="路径 322" d="M1018.41,731.808l12.419,12.419c6.387,6.387,10.644,15.612-1.419,23.418s-53.932,36.9-68.125,27.676,17.031-17.741,17.031-17.741,5.163-19.143,7.9-14.894,2.741,12.765,2.741,12.765Z" transform="translate(-145.688 -61.05)" fill="#2f2e41"/>
  <path id="路径_323" data-name="路径 323" d="M868.323,715.132S845.615,757,845.615,761.967s1.419,19.16,1.419,19.16l-43.287,10.644-14.9-7.1,4.967-12.773s26.966-9.225,32.643-26.966,12.064-36.191,12.064-36.191Z" transform="translate(-145.688 -61.05)" fill="#ffb8b8"/>
  <circle id="椭圆_55" data-name="椭圆 55" cx="29.804" cy="29.804" r="29.804" transform="translate(719.087 177.923)" fill="#ffb8b8"/>
  <path id="路径_324" data-name="路径 324" d="M886.774,294.324,901,335.209,932.19,321.29s-21.289-32.643-21.289-36.9Z" transform="translate(-145.688 -61.05)" fill="#ffb8b8"/>
  <path id="路径_325" data-name="路径 325" d="M882.516,439.8h37.61s26.966,41.158,11.354,84.445c-2.391,6.629-4.764,15.914-7.133,26.892-5.448,25.247-10.871,59.446-16.43,90.872-7.807,44.142-15.88,82.813-24.656,83.515-17.741,1.419-52.239,1.182-52.239-5.914s23.108-212.4,23.108-212.4L859.1,498.7l.939-37.092A22.373,22.373,0,0,1,882.516,439.8Z" transform="translate(-145.688 -61.05)" fill="#2f2e41"/>
  <path id="路径_326" data-name="路径 326" d="M845.261,761.613s8.161,13.838,6.032,23.772S845.616,793.9,830,795.32s-68.834,1.419-68.834-8.516,41.518-22.836,41.693-18.869,1.594,11.773-2.663,13.192-.355.355-.355.355Z" transform="translate(-145.688 -61.05)" fill="#2f2e41"/>
  <path id="路径_327" data-name="路径 327" d="M886.78,528.37s-3.087,50.409-23.676,35.4,8.024-42.115,8.024-42.115Z" transform="translate(-145.688 -61.05)" fill="#fff"/>
  <path id="路径_328" data-name="路径 328" d="M927.872,461.98a5.977,5.977,0,0,0,6.119-.724,6.269,6.269,0,0,0,2.321-3.954c2.977-17.16,6.6-64.734,8.688-88.791,2.619-30.186-10.465-53.566-10.574-53.708l-7.71-10.6a6.052,6.052,0,0,0-7.248-2.034s-24.071,24.975-24.16,25.939c-.378,4.141-3.242,13.317-18.175,28.249-16.339,16.339-16.43,30.6-16.068,34.58q.036.393.036.785a17.5,17.5,0,0,0,.719,5.28c6.844,21.575,1.484,47.406-7.122,74.369a6.081,6.081,0,0,0,2.451,6.6c2.514,1.71-.5-.827.4.271,5.931,7.268,14.467-2.862,24.231-13.915,3.4-3.85,7.256-8.214,11.8-12.758,6.247-6.247,18.182,8.008,23.732,8.008a25.769,25.769,0,0,1,10.564,2.4Z" transform="translate(-145.688 -61.05)" fill="#575a89"/>
  <path id="路径_329" data-name="路径 329" d="M931.182,325.811s15.589,13.146,6.732,30.2-7.679,29.624-7.679,29.624-2.358,117.125-30.03,111.434l-12.588,34.752-22.734-8.205L878.03,492.96s-10.529-.655-7.452-7.829c2.161-5.039,13.8-59.719,20.542-91.822,2.856-13.6,4.831-23.154,4.831-23.154S904.906,322.264,931.182,325.811Z" transform="translate(-145.688 -61.05)" fill="#575a89"/>
  <path id="路径_330" data-name="路径 330" d="M788.763,324.281,780,381.79l4.729-61.493Z" opacity="0.2"/>
  <path id="路径_331" data-name="路径 331" d="M862.062,255.572s-5.011-39,35.873-26.208c0,0,29.2-5.358,38.775,31.166l9.7,38.286-4.725-2.572-2.2,4.815L931.82,303l-3.277-6.5-1.585,7.9-62.717,6.252s28.09-16.612,28.535-46.385l-5.35,5.654Z" transform="translate(-145.688 -61.05)" fill="#2f2e41"/>
  <path id="路径_332" data-name="路径 332" d="M763.014,583.2,777,490.013l-11.374,100.6Z" opacity="0.2"/>
  <circle id="椭圆_56" data-name="椭圆 56" cx="15.77" cy="15.77" r="15.77" transform="translate(770.099 152.926)" fill="#2f2e41"/>
  <path id="路径_333" data-name="路径 333" d="M915.308,225.885a15.758,15.758,0,0,1,15.763-14.74c-.326-.041-.648-.092-.98-.113a15.77,15.77,0,1,0-2.024,31.475c.332.021.659.013.987.014a15.758,15.758,0,0,1-13.745-16.637Z" transform="translate(-145.688 -61.05)" fill="#2f2e41"/>
  <path id="路径_334" data-name="路径 334" d="M740.865,342.2,726.99,416.567l17.984-82.137Z" opacity="0.2"/>
  <path id="路径_335" data-name="路径 335" d="M887.419,290.256l-8.087,6.1c-8.328-4.191-14.575-13.888-16.845-23.144l8.812-4.446C871.991,278.2,878.692,284.479,887.419,290.256Z" transform="translate(-145.688 -61.05)" fill="#fff"/>
  <path id="路径_336" data-name="路径 336" d="M890.777,270.106h-20.15a.672.672,0,1,1,0-1.343h20.15a.672.672,0,1,1,0,1.343Z" transform="translate(-145.688 -61.05)" fill="#fff"/>
  <path id="路径_337" data-name="路径 337" d="M886.747,290.256a.671.671,0,0,1-.623-.921L891.5,275.9a.671.671,0,0,1,1.246.5l-5.373,13.433a.67.67,0,0,1-.623.422Z" transform="translate(-145.688 -61.05)" fill="#fff"/>
  <ellipse id="椭圆_57" data-name="椭圆 57" cx="4.928" cy="6.899" rx="4.928" ry="6.899" transform="translate(741.516 203.194)" fill="#ffb8b8"/>
  <path id="路径_338" data-name="路径 338" d="M399.191,230.876l52.486,12.011,22.176-41.825L428.974,183.54Z" fill="#2f2e41"/>
  <path id="路径_339" data-name="路径 339" d="M572.766,517.077s-16.872,38.664-16.872,49.912c0,0,6.678,30.58,4.569,39.016l-7.382,15.817-15.466-6.327L533.4,573.315l.7-67.486Z" transform="translate(-145.688 -61.05)" fill="#ffb9b9"/>
  <path id="路径_340" data-name="路径 340" d="M582.256,285.8s1.406,23.2-1.406,30.228,10.545,20.387,10.545,20.387l21.089-27.416s-14.06-14.06-10.545-29.525Z" transform="translate(-145.688 -61.05)" fill="#ffb9b9"/>
  <path id="路径_341" data-name="路径 341" d="M538.319,446.427s-20.386,37.961-.7,35.149,13.006-36.2,13.006-36.2" transform="translate(-145.688 -61.05)" fill="#e6e6e6"/>
  <path id="路径_342" data-name="路径 342" d="M404.933,384.323l6.678-66.432-.351-40.421-15.466,2.811v37.258l-3.163,67.838" fill="#ffb9b9"/>
  <path id="路径_343" data-name="路径 343" d="M533.75,610.574l30.228-11.951,3.515,59.753s6.327,18.278,4.218,25.308c0,0,1.406,11.951-2.109,12.654s-13.357,2.109-14.06,1.406-.7-2.812-.7-2.812-7.03,4.921-7.733,10.545c0,0-29.525,9.139-30.228.7s14.763-15.466,14.763-15.466l11.951-18.278Z" transform="translate(-145.688 -61.05)" fill="#2f2e41"/>
  <path id="路径_344" data-name="路径 344" d="M635.682,517.077s-16.872,38.664-16.872,49.912c0,0,6.678,30.58,4.569,39.016L616,621.821l-15.466-6.327-4.218-42.179.7-67.486Z" transform="translate(-145.688 -61.05)" fill="#ffb9b9"/>
  <path id="路径_345" data-name="路径 345" d="M597.721,610.574l30.229-11.951,3.515,59.753s6.327,18.278,4.218,25.307c0,0,1.406,11.951-2.109,12.654s-13.357,2.109-14.06,1.406-.7-2.812-.7-2.812-7.03,4.921-7.733,10.545c0,0-29.525,9.139-30.228.7s14.763-15.466,14.763-15.466l11.951-18.278Z" transform="translate(-145.688 -61.05)" fill="#2f2e41"/>
  <path id="路径_346" data-name="路径 346" d="M611.786,269.631a22.5,22.5,0,0,1-44.446,4.922,21.8,21.8,0,0,1-.551-4.922,22.5,22.5,0,0,1,45,0Z" transform="translate(-145.688 -61.05)" fill="#ffb9b9"/>
  <path id="路径_347" data-name="路径 347" d="M592.1,314.618l17.457-9.065,7.851,6.253s18.98-.7,26.01,7.733,10.9,29.877,10.9,29.877-23.2-4.921-20.386,14.763l-4.218-11.248-3.866,9.49-47.1,16.169-21.09-35.852s-14.06-4.218-18.98,5.624c0,0,1.054-35.5,14.763-36.555,9.219-.709,16.169-.7,16.169-.7l7.733-1.406,4.952-1.757Z" transform="translate(-145.688 -61.05)" fill="#575a89"/>
  <path id="路径_348" data-name="路径 348" d="M621.974,391.6s36.907,110.72,26.362,126.185c0,0-39.367,19.683-118.1-7.03L562.22,386.674Q591.692,380.647,621.974,391.6Z" transform="translate(-145.688 -61.05)" fill="#2f2e41"/>
  <path id="路径_349" data-name="路径 349" d="M621.974,391.6,632.361,355.9c-12.46-13.55-1.706-43.6-1.706-43.6l-15.034-3.222s-15.088,40.686-30.554,35.765-7.03-36.555-7.03-36.555l-14.06,1.406-6.327,24.6,4.569,52.372C581.277,385.04,601.264,386.942,621.974,391.6Z" transform="translate(-145.688 -61.05)" fill="#575a89"/>
  <path id="路径_350" data-name="路径 350" d="M494.563,384.323l4.921-66.784,1.406-40.069-15.465,2.811v37.258l-3.164,67.838" fill="#ffb9b9"/>
  <path id="路径_351" data-name="路径 351" d="M627.95,446.427s-20.386,37.961-.7,35.149,13.005-36.2,13.005-36.2" transform="translate(-145.688 -61.05)" fill="#fff"/>
  <path id="路径_352" data-name="路径 352" d="M654.311,349.416s-2.5-36.1-23.393-35.977v41.75S646.579,345.9,654.311,349.416Z" transform="translate(-145.688 -61.05)" fill="#575a89"/>
  <path id="路径_353" data-name="路径 353" d="M596.481,275.436a.574.574,0,0,1-.358-1.022l11.473-9.178a.574.574,0,0,1,.717.9l-11.473,9.178A.574.574,0,0,1,596.481,275.436Z" transform="translate(-145.688 -61.05)" fill="#fff"/>
  <path id="路径_354" data-name="路径 354" d="M597.349,289.2c-.252.31-.5.62-.769.906a22.5,22.5,0,0,1-31.241-15.557l10.871-2,21.138,2C592.508,280.45,593.093,282.492,597.349,289.2Z" transform="translate(-145.688 -61.05)" fill="#fff"/>
  <path id="路径_355" data-name="路径 355" d="M576.584,238.141s-11.627,2.187-14.316,16.688a26.622,26.622,0,0,0-.228,7.4c.268,2.791-.121,8.687-6.182,15.629a151.967,151.967,0,0,0-11.035,14.172h0l12.149,3.234L562.4,275.14a102.972,102.972,0,0,1,12.032-27.655l.112-.179s4.035,10.782,14.85,12.26l-3.335-4.39s12.643,7.309,19.806,9.541a4.706,4.706,0,0,1,1.519,8.184l-.155.12c-5.269,4-16.017,13.55-11.771,22.787s-.706,10.921-.706,10.921l9.131-3.474,4.179-1.79-.422,3.09,20.4.427s5.513-.033-4.28-14.75c0,0-2.363-5.518-.423-9.734a22.392,22.392,0,0,0,2.261-10.261C624.986,255.4,618.736,225.216,576.584,238.141Z" transform="translate(-145.688 -61.05)" fill="#2f2e41"/>
  <path id="路径_356" data-name="路径 356" d="M290.384,660.763s0,95.462-21.909,120.5c0,0-4.695,12.52-6.26,17.214a65.791,65.791,0,0,1-3.13,7.825v6.26s-42.254-4.695-46.949-15.649l7.825-9.39s1.565-1.565,0-6.26,3.13-4.695,3.13-4.695l10.955-25.039-1.565-103.286,7.825-142.411L307.6,502.7Z" transform="translate(-145.688 -61.05)" fill="#2f2e41"/>
  <path id="路径_357" data-name="路径 357" d="M255.955,803.174s10.955,32.864,0,34.429-106.417,3.13-104.852-9.39,32.864-10.955,32.864-10.955l32.864-20.344Z" transform="translate(-145.688 -61.05)" fill="#2f2e41"/>
  <path id="路径_358" data-name="路径 358" d="M352.982,505.833s3.13,20.344-9.39,42.254-4.695,95.462-4.695,95.462l111.111,97.027s-21.909,37.559-29.734,35.994S288.819,674.848,288.819,674.848L240.306,512.093Z" transform="translate(-145.688 -61.05)" fill="#2f2e41"/>
  <path id="路径_359" data-name="路径 359" d="M448.482,736.429s33.622,8.341,29.08,18.431-54.326,91.558-64.063,83.534,8.341-33.622,8.341-33.622l.41-38.649Z" transform="translate(-145.688 -61.05)" fill="#2f2e41"/>
  <path id="路径_360" data-name="路径 360" d="M327.943,214.755a36.007,36.007,0,0,1-42.958,35.307,34.923,34.923,0,0,1-9.249-3.183A35.971,35.971,0,0,1,257,223.361a35.452,35.452,0,0,1-1.046-8.606,35.995,35.995,0,1,1,71.989,0Z" transform="translate(-145.688 -61.05)" fill="#a0616a"/>
  <path id="路径_361" data-name="路径 361" d="M320.27,227.453l-1.592,46.317-30.286,11.966s-2.97-47.426-7.163-50.055S320.27,227.453,320.27,227.453Z" transform="translate(-145.688 -61.05)" fill="#a0616a"/>
  <path id="路径_362" data-name="路径 362" d="M280.995,291.435s42.254-42.254,53.208-40.689,10.955,6.26,10.955,9.39-3.13,4.695,0,6.26,6.26,0,6.26,4.695,28.169,51.643,18.779,103.287-20.344,76.682-15.65,104.852,1.565,34.429,1.565,34.429-117.372,9.389-118.937-1.565,4.695-4.695-3.13-12.52-4.695-7.825-4.695-12.52S263.78,291.435,280.995,291.435Z" transform="translate(-145.688 -61.05)" fill="#575a89"/>
  <path id="路径_363" data-name="路径 363" d="M302.9,504.268S284.125,549.652,270.04,538.7s6.26-48.513,6.26-48.513Z" transform="translate(-145.688 -61.05)" fill="#fff"/>
  <path id="路径_364" data-name="路径 364" d="M348.287,294.565s36.768,4.21,23.079,71.745-66.9,145.783-66.9,145.783l-35.994-17.215,46.949-92.332-10.955-57.9S298.209,289.87,348.287,294.565Z" transform="translate(-145.688 -61.05)" fill="#575a89"/>
  <path id="路径_365" data-name="路径 365" d="M170.518,342.279l-51.644,86.072,4.695,4.695Z" opacity="0.2"/>
  <path id="路径_366" data-name="路径 366" d="M197.853,382.389l-41.42,67.871h14.085Z" opacity="0.2"/>
  <rect id="矩形_253" data-name="矩形 253" width="2.227" height="115.562" transform="translate(102.209 506.525) rotate(-20.877)" opacity="0.2"/>
  <circle id="椭圆_58" data-name="椭圆 58" cx="2.226" cy="2.226" r="2.226" transform="translate(133.302 234.525)" fill="#d0cde1"/>
  <line id="直线_57" data-name="直线 57" x1="18.923" y2="61.222" transform="translate(116.605 236.751)" fill="none"/>
  <path id="路径_367" data-name="路径 367" d="M262.293,360.136a1.113,1.113,0,0,0,1.063-.785l18.923-61.221a1.113,1.113,0,1,0-2.126-.658L261.23,358.7a1.114,1.114,0,0,0,1.063,1.441Z" transform="translate(-145.688 -61.05)" fill="#d0cde1"/>
  <path id="路径_368" data-name="路径 368" d="M284.731,242.323l-8.995,8.557c-9.264-4.662-18.212-17.223-20.737-27.518l11.8-4.946C267.572,228.916,275.025,235.9,284.731,242.323Z" transform="translate(-145.688 -61.05)" fill="#fff"/>
  <path id="路径_369" data-name="路径 369" d="M286.974,222.9a.752.752,0,0,1-.107-.007L265.949,219.9a.747.747,0,0,1,.21-1.48l20.918,2.988a.747.747,0,0,1-.1,1.487Z" transform="translate(-145.688 -61.05)" fill="#fff"/>
  <path id="路径_370" data-name="路径 370" d="M283.984,242.323a.746.746,0,0,1-.651-1.113l6.931-12.339a.747.747,0,0,1,1.3.733l-6.931,12.339a.745.745,0,0,1-.651.381Z" transform="translate(-145.688 -61.05)" fill="#fff"/>
  <path id="路径_371" data-name="路径 371" d="M308.241,236.381c-2.914-1.541-6.3-1.858-9.453-2.816-11.284-3.426-18.843-16.182-16.43-27.725a14.147,14.147,0,0,0,.593-4.569c-.422-3.419-3.92-5.625-7.274-6.408s-6.923-.67-10.13-1.929c-4.95-1.945-8.239-7.032-8.951-12.3s.851-10.646,3.395-15.317L261.2,168.8a12.933,12.933,0,0,0,3.959-5.921,8.156,8.156,0,0,1,6.215,5c1.945,1.147,2.225-3.563,4.373-4.258.9-.291,1.825.262,2.681.661,4.329,2.019,9.358.293,14-.826a52.709,52.709,0,0,1,24.468-.029c5.345,1.275,10.636,3.495,14.461,7.44,3.141,3.24,5.1,7.43,6.765,11.624,4.1,10.324,6.812,21.5,5.458,32.522a46.034,46.034,0,0,1-10.849,24.39c-3.1,3.569-13.2,16.019-18.744,13.9C307.029,250.63,316.444,240.719,308.241,236.381Z" transform="translate(-145.688 -61.05)" fill="#2f2e41"/>
</svg>
